RobotoCondensed-Thin.ufo
<glyph name="numbersign" format="2">
  <advance width="996"/>
  <unicode hex="0023"/>
  <outline>
    <contour>
      <point x="232" y="0" type="line"/>
      <point x="283" y="0" type="line"/>
      <point x="507" y="1456" type="line"/>
      <point x="455" y="1456" type="line"/>
    </contour>
    <contour>
      <point x="587" y="0" type="line"/>
      <point x="637" y="0" type="line"/>
      <point x="865" y="1456" type="line"/>
      <point x="812" y="1456" type="line"/>
    </contour>
    <contour>
      <point x="1011" y="990" type="line"/>
      <point x="1011" y="1040" type="line"/>
      <point x="130" y="1040" type="line"/>
      <point x="130" y="990" type="line"/>
    </contour>
    <contour>
      <point x="947" y="410" type="line"/>
      <point x="947" y="459" type="line"/>
      <point x="66" y="459" type="line"/>
      <point x="66" y="410" type="line"/>
    </contour>
  </outline>
</glyph>
<glyph name="C" format="2">
  <advance width="1164"/>
  <unicode hex="0043"/>
  <anchor x="594" y="1633" name="top"/>
  <anchor x="594" y="-10" name="bottom"/>
  <anchor x="1145" y="1600" name="top_dd"/>
  <anchor x="1145" y="-407" name="bottom_dd"/>
  <anchor x="1145" y="1633" name="top0315"/>
  <anchor x="594" y="1633" name="parent_top"/>
  <outline>
    <contour>
      <point x="978" y="444" type="line"/>
      <point x="953" y="117"/>
      <point x="817" y="29"/>
      <point x="589" y="29" type="curve" smooth="yes"/>
      <point x="352" y="29"/>
      <point x="201" y="217"/>
      <point x="201" y="562" type="curve" smooth="yes"/>
      <point x="201" y="915" type="line" smooth="yes"/>
      <point x="201" y="1247"/>
      <point x="352" y="1426"/>
      <point x="591" y="1426" type="curve" smooth="yes"/>
      <point x="822" y="1426"/>
      <point x="953" y="1319"/>
      <point x="978" y="1013" type="curve"/>
      <point x="1032" y="1013" type="line"/>
      <point x="1004" y="1361"/>
      <point x="839" y="1476"/>
      <point x="591" y="1476" type="curve" smooth="yes"/>
      <point x="316" y="1476"/>
      <point x="147" y="1272"/>
      <point x="147" y="913" type="curve"/>
      <point x="147" y="562" type="line"/>
      <point x="147" y="192"/>
      <point x="317" y="-22"/>
      <point x="589" y="-22" type="curve" smooth="yes"/>
      <point x="839" y="-22"/>
      <point x="1005" y="91"/>
      <point x="1032" y="444" type="curve"/>
    </contour>
  </outline>
</glyph>
<glyph name="I" format="2">
  <advance width="492"/>
  <unicode hex="0049"/>
  <anchor x="248" y="1612" name="top"/>
  <anchor x="248" y="0" name="bottom"/>
  <anchor x="473" y="1600" name="top_dd"/>
  <anchor x="473" y="-407" name="bottom_dd"/>
  <anchor x="473" y="1612" name="top0315"/>
  <anchor x="248" y="1612" name="parent_top"/>
  <outline>
    <contour>
      <point x="272" y="1456" type="line"/>
      <point x="219" y="1456" type="line"/>
      <point x="219" y="0" type="line"/>
      <point x="272" y="0" type="line"/>
    </contour>
  </outline>
</glyph>
<glyph name="Q" format="2">
  <advance width="1197"/>
  <unicode hex="0051"/>
  <anchor x="613" y="1600" name="top"/>
  <anchor x="611" y="-10" name="bottom"/>
  <anchor x="1178" y="1600" name="top_dd"/>
  <anchor x="1178" y="-407" name="bottom_dd"/>
  <anchor x="1178" y="1600" name="top0315"/>
  <anchor x="613" y="1600" name="parent_top"/>
  <outline>
    <contour>
      <point x="779" y="56" type="line"/>
      <point x="740" y="19" type="line"/>
      <point x="996" y="-265" type="line"/>
      <point x="1034" y="-232" type="line"/>
    </contour>
    <contour>
      <point x="1059" y="914" type="line"/>
      <point x="1059" y="1269"/>
      <point x="883" y="1476"/>
      <point x="597" y="1476" type="curve" smooth="yes"/>
      <point x="314" y="1476"/>
      <point x="137" y="1269"/>
      <point x="137" y="914" type="curve"/>
      <point x="137" y="542" type="line"/>
      <point x="137" y="186"/>
      <point x="316" y="-22"/>
      <point x="598" y="-22" type="curve" smooth="yes"/>
      <point x="884" y="-22"/>
      <point x="1059" y="186"/>
      <point x="1059" y="542" type="curve"/>
    </contour>
    <contour>
      <point x="1005" y="542" type="line"/>
      <point x="1005" y="221"/>
      <point x="863" y="30"/>
      <point x="598" y="30" type="curve" smooth="yes"/>
      <point x="338" y="30"/>
      <point x="192" y="221"/>
      <point x="192" y="542" type="curve" smooth="yes"/>
      <point x="192" y="916" type="line" smooth="yes"/>
      <point x="192" y="1234"/>
      <point x="336" y="1425"/>
      <point x="597" y="1425" type="curve" smooth="yes"/>
      <point x="862" y="1425"/>
      <point x="1005" y="1234"/>
      <point x="1005" y="916" type="curve"/>
    </contour>
  </outline>
</glyph>
<glyph name="j" format="2">
  <advance width="416"/>
  <unicode hex="006A"/>
  <anchor x="208" y="1600" name="top"/>
  <anchor x="181" y="-459" name="bottom"/>
  <anchor x="397" y="1600" name="top_dd"/>
  <anchor x="397" y="-407" name="bottom_dd"/>
  <anchor x="397" y="1600" name="top0315"/>
  <anchor x="208" y="1600" name="parent_top"/>
  <outline>
    <contour>
      <point x="173" y="1082" type="line"/>
      <point x="173" y="-129" type="line"/>
      <point x="173" y="-292"/>
      <point x="107" y="-386"/>
      <point x="-15" y="-386" type="curve" smooth="yes"/>
      <point x="-47" y="-386"/>
      <point x="-77" y="-376"/>
      <point x="-96" y="-367" type="curve"/>
      <point x="-98" y="-415" type="line"/>
      <point x="-71" y="-430"/>
      <point x="-44" y="-437"/>
      <point x="-15" y="-437" type="curve" smooth="yes"/>
      <point x="138" y="-437"/>
      <point x="228" y="-328"/>
      <point x="228" y="-129" type="curve"/>
      <point x="228" y="1082" type="line"/>
    </contour>
    <contour>
      <point x="155" y="1422" type="curve" smooth="yes"/>
      <point x="155" y="1391"/>
      <point x="176" y="1368"/>
      <point x="205" y="1368" type="curve" smooth="yes"/>
      <point x="232" y="1368"/>
      <point x="255" y="1391"/>
      <point x="255" y="1422" type="curve" smooth="yes"/>
      <point x="255" y="1453"/>
      <point x="232" y="1476"/>
      <point x="205" y="1476" type="curve" smooth="yes"/>
      <point x="176" y="1476"/>
      <point x="155" y="1453"/>
    </contour>
  </outline>
</glyph>
<glyph name="Tbar" format="2">
  <advance width="1076"/>
  <unicode hex="0166"/>
  <anchor x="536" y="1605" name="parent_top"/>
  <anchor x="538" y="0" name="bottom"/>
  <anchor x="1057" y="1600" name="top_dd"/>
  <anchor x="1057" y="-407" name="bottom_dd"/>
  <anchor x="1057" y="1605" name="top0315"/>
  <anchor x="536" y="1605" name="top"/>
  <outline>
    <contour>
      <point x="564" y="1456" type="line"/>
      <point x="512" y="1456" type="line"/>
      <point x="512" y="0" type="line"/>
      <point x="564" y="0" type="line"/>
    </contour>
    <contour>
      <point x="1011" y="1456" type="line"/>
      <point x="64" y="1456" type="line"/>
      <point x="64" y="1406" type="line"/>
      <point x="1011" y="1406" type="line"/>
    </contour>
    <contour>
      <point x="775" y="898" type="line"/>
      <point x="274" y="898" type="line"/>
      <point x="274" y="848" type="line"/>
      <point x="775" y="848" type="line"/>
    </contour>
  </outline>
</glyph>
<glyph name="uni01EF" format="2">
  <advance width="1027"/>
  <unicode hex="01EF"/>
  <outline>
    <contour>
      <point x="342" y="1472" type="line"/>
      <point x="278" y="1472" type="line"/>
      <point x="278" y="1460" type="line"/>
      <point x="461" y="1252" type="line"/>
      <point x="529" y="1252" type="line"/>
      <point x="711" y="1457" type="line"/>
      <point x="711" y="1472" type="line"/>
      <point x="651" y="1472" type="line"/>
      <point x="495" y="1285" type="line"/>
    </contour>
    <contour>
      <point x="140" y="1082" type="line"/>
      <point x="140" y="1030" type="line"/>
      <point x="820" y="1030" type="line"/>
      <point x="412" y="458" type="line"/>
      <point x="412" y="445" type="line"/>
      <point x="465" y="445" type="line"/>
      <point x="880" y="1017" type="line"/>
      <point x="879" y="1082" type="line"/>
    </contour>
    <contour>
      <point x="412" y="451" type="line"/>
      <point x="412" y="406" type="line"/>
      <point x="476" y="406" type="line" smooth="yes"/>
      <point x="684" y="406"/>
      <point x="824" y="292"/>
      <point x="824" y="6" type="curve" smooth="yes"/>
      <point x="824" y="-212"/>
      <point x="708" y="-344"/>
      <point x="505" y="-344" type="curve" smooth="yes"/>
      <point x="306" y="-344"/>
      <point x="175" y="-187"/>
      <point x="175" y="29" type="curve"/>
      <point x="121" y="29" type="line"/>
      <point x="121" y="-261"/>
      <point x="318" y="-395"/>
      <point x="505" y="-395" type="curve" smooth="yes"/>
      <point x="719" y="-395"/>
      <point x="878" y="-247"/>
      <point x="878" y="10" type="curve" smooth="yes"/>
      <point x="878" y="294"/>
      <point x="729" y="451"/>
      <point x="481" y="451" type="curve" smooth="yes"/>
    </contour>
  </outline>
</glyph>
<glyph name="uni0221" format="2">
  <advance width="1250"/>
  <unicode hex="0221"/>
  <outline>
    <contour>
      <point x="777" y="228" type="curve"/>
      <point x="777" y="228"/>
      <point x="777" y="-135"/>
      <point x="777" y="-135" type="curve"/>
      <point x="777" y="-346"/>
      <point x="853" y="-437"/>
      <point x="1008" y="-437" type="curve" smooth="yes"/>
      <point x="1138" y="-437"/>
      <point x="1204" y="-328"/>
      <point x="1204" y="-203" type="curve" smooth="yes"/>
      <point x="1204" y="-59"/>
      <point x="1122" y="15"/>
      <point x="1021" y="15" type="curve" smooth="yes"/>
      <point x="920" y="15"/>
      <point x="845" y="-54"/>
      <point x="782" y="-142" type="curve"/>
      <point x="655" y="-373" type="line"/>
      <point x="655" y="-373"/>
      <point x="696" y="-402"/>
      <point x="696" y="-402" type="curve"/>
      <point x="789" y="-226" type="line"/>
      <point x="859" y="-105"/>
      <point x="922" y="-36"/>
      <point x="1011" y="-36" type="curve" smooth="yes"/>
      <point x="1100" y="-36"/>
      <point x="1152" y="-102"/>
      <point x="1152" y="-203" type="curve" smooth="yes"/>
      <point x="1152" y="-304"/>
      <point x="1104" y="-386"/>
      <point x="1008" y="-386" type="curve" smooth="yes"/>
      <point x="868" y="-386"/>
      <point x="829" y="-294"/>
      <point x="829" y="-140" type="curve"/>
      <point x="829" y="-62"/>
      <point x="829" y="228"/>
      <point x="829" y="228" type="curve"/>
      <point x="829" y="228"/>
      <point x="777" y="228"/>
    </contour>
    <contour>
      <point x="777" y="210" type="line"/>
      <point x="777" y="0" type="line"/>
      <point x="829" y="0" type="line"/>
      <point x="829" y="1536" type="line"/>
      <point x="777" y="1536" type="line"/>
    </contour>
    <contour>
      <point x="121" y="531" type="line"/>
      <point x="121" y="201"/>
      <point x="250" y="-20"/>
      <point x="467" y="-20" type="curve" smooth="yes"/>
      <point x="675" y="-20"/>
      <point x="794" y="133"/>
      <point x="823" y="298" type="curve"/>
      <point x="823" y="750" type="line"/>
      <point x="784" y="949"/>
      <point x="671" y="1102"/>
      <point x="469" y="1102" type="curve" smooth="yes"/>
      <point x="250" y="1102"/>
      <point x="121" y="892"/>
      <point x="121" y="552" type="curve" smooth="yes"/>
    </contour>
    <contour>
      <point x="176" y="552" type="line"/>
      <point x="176" y="841"/>
      <point x="269" y="1052"/>
      <point x="470" y="1052" type="curve" smooth="yes"/>
      <point x="697" y="1052"/>
      <point x="769" y="844"/>
      <point x="793" y="712" type="curve"/>
      <point x="793" y="327" type="line"/>
      <point x="763" y="162"/>
      <point x="659" y="31"/>
      <point x="468" y="31" type="curve" smooth="yes"/>
      <point x="269" y="31"/>
      <point x="176" y="240"/>
      <point x="176" y="531" type="curve" smooth="yes"/>
    </contour>
  </outline>
</glyph>
<glyph name="uni02BF" format="2">
  <advance width="286"/>
  <unicode hex="02BF"/>
  <outline>
    <contour>
      <point x="202" y="1206" type="line"/>
      <point x="137" y="1206"/>
      <point x="84" y="1265"/>
      <point x="84" y="1338" type="curve" smooth="yes"/>
      <point x="84" y="1414"/>
      <point x="137" y="1477"/>
      <point x="202" y="1477" type="curve"/>
      <point x="202" y="1422" type="line"/>
      <point x="163" y="1422"/>
      <point x="135" y="1387"/>
      <point x="135" y="1338" type="curve" smooth="yes"/>
      <point x="135" y="1294"/>
      <point x="163" y="1260"/>
      <point x="202" y="1260" type="curve"/>
    </contour>
  </outline>
</glyph>
<glyph name="uni02D7" format="2">
  <advance width="552"/>
  <unicode hex="02D7"/>
  <outline>
    <contour>
      <point x="86" y="382" type="line"/>
      <point x="86" y="329" type="line"/>
      <point x="465" y="329" type="line"/>
      <point x="465" y="382" type="line"/>
    </contour>
  </outline>
</glyph>
<glyph name="uni02FA" format="2">
  <advance width="512"/>
  <unicode hex="02FA"/>
  <outline>
    <contour>
      <point x="374" y="1536" type="line"/>
      <point x="425" y="1536" type="line"/>
      <point x="425" y="1150" type="line"/>
      <point x="374" y="1150" type="line"/>
    </contour>
    <contour>
      <point x="425" y="1536" type="line"/>
      <point x="425" y="1485" type="line"/>
      <point x="87" y="1485" type="line"/>
      <point x="87" y="1536" type="line"/>
    </contour>
  </outline>
</glyph>
<glyph name="uni0362" format="2">
  <unicode hex="0362"/>
  <anchor x="19" y="-140" name="_bottom_dd"/>
  <outline>
    <contour>
      <point x="676" y="-293" type="line"/>
      <point x="-658" y="-293" type="line"/>
      <point x="-658" y="-333" type="line"/>
      <point x="676" y="-333" type="line"/>
    </contour>
    <contour>
      <point x="479" y="-546" type="line"/>
      <point x="733" y="-311" type="line"/>
      <point x="691" y="-291" type="line"/>
      <point x="410" y="-546" type="line"/>
    </contour>
    <contour>
      <point x="408" y="-75" type="line"/>
      <point x="688" y="-328" type="line"/>
      <point x="733" y="-311" type="line"/>
      <point x="479" y="-75" type="line"/>
    </contour>
  </outline>
</glyph>
<glyph name="uni0367" format="2">
  <unicode hex="0367"/>
  <anchor x="-459" y="1170" name="_top"/>
  <anchor x="-459" y="1818" name="_mkmktop"/>
  <outline>
    <contour>
      <point x="-326" y="1329" type="line"/>
      <point x="-325" y="1203" type="line"/>
      <point x="-287" y="1203" type="line"/>
      <point x="-287" y="1755" type="line"/>
      <point x="-326" y="1755" type="line"/>
    </contour>
    <contour>
      <point x="-322" y="1432" type="line"/>
      <point x="-322" y="1326"/>
      <point x="-352" y="1228"/>
      <point x="-474" y="1228" type="curve" smooth="yes"/>
      <point x="-550" y="1228"/>
      <point x="-592" y="1268"/>
      <point x="-592" y="1437" type="curve" smooth="yes"/>
      <point x="-592" y="1755" type="line"/>
      <point x="-631" y="1755" type="line"/>
      <point x="-631" y="1438" type="line" smooth="yes"/>
      <point x="-631" y="1252"/>
      <point x="-577" y="1191"/>
      <point x="-476" y="1191" type="curve" smooth="yes"/>
      <point x="-346" y="1191"/>
      <point x="-291" y="1293"/>
      <point x="-291" y="1428" type="curve"/>
    </contour>
  </outline>
</glyph>
<glyph name="uni036B" format="2">
  <unicode hex="036B"/>
  <anchor x="-459" y="1170" name="_top"/>
  <anchor x="-459" y="1818" name="_mkmktop"/>
  <outline>
    <contour>
      <point x="-744" y="1627" type="line"/>
      <point x="-746" y="1755" type="line"/>
      <point x="-781" y="1755" type="line"/>
      <point x="-781" y="1203" type="line"/>
      <point x="-744" y="1203" type="line"/>
    </contour>
    <contour>
      <point x="-748" y="1523" type="line"/>
      <point x="-748" y="1629"/>
      <point x="-718" y="1728"/>
      <point x="-595" y="1728" type="curve" smooth="yes"/>
      <point x="-521" y="1728"/>
      <point x="-477" y="1688"/>
      <point x="-477" y="1517" type="curve" smooth="yes"/>
      <point x="-477" y="1203" type="line"/>
      <point x="-439" y="1203" type="line"/>
      <point x="-439" y="1516" type="line" smooth="yes"/>
      <point x="-439" y="1702"/>
      <point x="-494" y="1766"/>
      <point x="-594" y="1766" type="curve" smooth="yes"/>
      <point x="-724" y="1766"/>
      <point x="-778" y="1666"/>
      <point x="-778" y="1528" type="curve"/>
    </contour>
    <contour>
      <point x="-444" y="1523" type="line"/>
      <point x="-444" y="1629"/>
      <point x="-413" y="1728"/>
      <point x="-291" y="1728" type="curve" smooth="yes"/>
      <point x="-216" y="1728"/>
      <point x="-173" y="1688"/>
      <point x="-173" y="1517" type="curve" smooth="yes"/>
      <point x="-173" y="1203" type="line"/>
      <point x="-134" y="1203" type="line"/>
      <point x="-134" y="1516" type="line" smooth="yes"/>
      <point x="-134" y="1702"/>
      <point x="-189" y="1766"/>
      <point x="-289" y="1766" type="curve" smooth="yes"/>
      <point x="-419" y="1766"/>
      <point x="-474" y="1666"/>
      <point x="-474" y="1528" type="curve"/>
    </contour>
  </outline>
</glyph>
<glyph name="dieresistonos" format="2">
  <advance width="831"/>
  <unicode hex="0385"/>
  <outline>
    <contour>
      <point x="224" y="1309" type="curve" smooth="yes"/>
      <point x="256" y="1309"/>
      <point x="283" y="1334"/>
      <point x="283" y="1365" type="curve" smooth="yes"/>
      <point x="283" y="1393"/>
      <point x="256" y="1417"/>
      <point x="224" y="1417" type="curve" smooth="yes"/>
      <point x="189" y="1417"/>
      <point x="166" y="1393"/>
      <point x="166" y="1365" type="curve" smooth="yes"/>
      <point x="166" y="1334"/>
      <point x="189" y="1309"/>
    </contour>
    <contour>
      <point x="411" y="1267" type="line"/>
      <point x="497" y="1667" type="line"/>
      <point x="422" y="1667" type="line"/>
      <point x="382" y="1272" type="line"/>
    </contour>
    <contour>
      <point x="606" y="1309" type="curve" smooth="yes"/>
      <point x="641" y="1309"/>
      <point x="665" y="1334"/>
      <point x="665" y="1365" type="curve" smooth="yes"/>
      <point x="665" y="1394"/>
      <point x="641" y="1419"/>
      <point x="606" y="1419" type="curve" smooth="yes"/>
      <point x="574" y="1419"/>
      <point x="549" y="1394"/>
      <point x="549" y="1365" type="curve" smooth="yes"/>
      <point x="549" y="1334"/>
      <point x="574" y="1309"/>
    </contour>
  </outline>
</glyph>
<glyph name="Delta" format="2">
  <advance width="1237"/>
  <unicode hex="0394"/>
  <outline>
    <contour>
      <point x="97" y="0" type="line"/>
      <point x="1145" y="0" type="line"/>
      <point x="1145" y="30" type="line"/>
      <point x="651" y="1456" type="line"/>
      <point x="591" y="1456" type="line"/>
      <point x="97" y="30" type="line"/>
    </contour>
    <contour>
      <point x="160" y="50" type="line"/>
      <point x="621" y="1396" type="line"/>
      <point x="1081" y="50" type="line"/>
    </contour>
  </outline>
</glyph>
<glyph name="Theta" format="2">
  <advance width="1198"/>
  <unicode hex="0398"/>
  <outline>
    <contour>
      <point x="600" y="-22" type="curve" smooth="yes"/>
      <point x="885" y="-22"/>
      <point x="1059" y="186"/>
      <point x="1059" y="541" type="curve"/>
      <point x="1059" y="914" type="line"/>
      <point x="1059" y="1270"/>
      <point x="884" y="1476"/>
      <point x="597" y="1476" type="curve" smooth="yes"/>
      <point x="314" y="1476"/>
      <point x="139" y="1270"/>
      <point x="139" y="914" type="curve"/>
      <point x="139" y="541" type="line"/>
      <point x="139" y="186"/>
      <point x="316" y="-22"/>
    </contour>
    <contour>
      <point x="601" y="30" type="curve" smooth="yes"/>
      <point x="340" y="30"/>
      <point x="193" y="221"/>
      <point x="193" y="541" type="curve" smooth="yes"/>
      <point x="193" y="916" type="line" smooth="yes"/>
      <point x="193" y="1234"/>
      <point x="338" y="1425"/>
      <point x="598" y="1425" type="curve" smooth="yes"/>
      <point x="863" y="1425"/>
      <point x="1006" y="1234"/>
      <point x="1006" y="916" type="curve"/>
      <point x="1006" y="541" type="line"/>
      <point x="1006" y="221"/>
      <point x="864" y="30"/>
    </contour>
    <contour>
      <point x="292" y="702" type="line"/>
      <point x="906" y="702" type="line"/>
      <point x="906" y="755" type="line"/>
      <point x="292" y="755" type="line"/>
    </contour>
  </outline>
</glyph>
<glyph name="Xi" format="2">
  <advance width="992"/>
  <unicode hex="039E"/>
  <outline>
    <contour>
      <point x="107" y="0" type="line"/>
      <point x="885" y="0" type="line"/>
      <point x="885" y="59" type="line"/>
      <point x="107" y="59" type="line"/>
    </contour>
    <contour>
      <point x="209" y="716" type="line"/>
      <point x="783" y="716" type="line"/>
      <point x="783" y="775" type="line"/>
      <point x="209" y="775" type="line"/>
    </contour>
    <contour>
      <point x="107" y="1397" type="line"/>
      <point x="885" y="1397" type="line"/>
      <point x="885" y="1456" type="line"/>
      <point x="107" y="1456" type="line"/>
    </contour>
  </outline>
</glyph>
<glyph name="Pi" format="2">
  <advance width="1260"/>
  <unicode hex="03A0"/>
  <outline>
    <contour>
      <point x="187" y="0" type="line"/>
      <point x="239" y="0" type="line"/>
      <point x="239" y="1406" type="line"/>
      <point x="1017" y="1406" type="line"/>
      <point x="1017" y="0" type="line"/>
      <point x="1069" y="0" type="line"/>
      <point x="1069" y="1456" type="line"/>
      <point x="187" y="1456" type="line"/>
    </contour>
  </outline>
</glyph>
<glyph name="Sigma" format="2">
  <advance width="992"/>
  <unicode hex="03A3"/>
  <outline>
    <contour>
      <point x="58" y="0" type="line"/>
      <point x="919" y="0" type="line"/>
      <point x="919" y="51" type="line"/>
      <point x="110" y="51" type="line"/>
      <point x="119" y="37" type="line"/>
      <point x="499" y="736" type="line"/>
      <point x="499" y="753" type="line"/>
      <point x="162" y="1419" type="line"/>
      <point x="136" y="1406" type="line"/>
      <point x="896" y="1406" type="line"/>
      <point x="896" y="1456" type="line"/>
      <point x="96" y="1456" type="line"/>
      <point x="96" y="1417" type="line"/>
      <point x="460" y="699" type="line"/>
      <point x="450" y="761" type="line"/>
      <point x="58" y="36" type="line"/>
    </contour>
  </outline>
</glyph>
<glyph name="Omega" format="2">
  <advance width="1160"/>
  <unicode hex="03A9"/>
  <anchor x="109" y="1456.0" name="GRK_topleft"/>
  <outline>
    <contour>
      <point x="141" y="0" type="line"/>
      <point x="504" y="0" type="line"/>
      <point x="504" y="357" type="line"/>
      <point x="303" y="389"/>
      <point x="192" y="595"/>
      <point x="192" y="844" type="curve" smooth="yes"/>
      <point x="192" y="912" type="line" smooth="yes"/>
      <point x="192" y="1246"/>
      <point x="332" y="1425"/>
      <point x="580" y="1425" type="curve"/>
      <point x="829" y="1425"/>
      <point x="968" y="1246"/>
      <point x="968" y="912" type="curve" smooth="yes"/>
      <point x="968" y="844" type="line" smooth="yes"/>
      <point x="968" y="595"/>
      <point x="848" y="389"/>
      <point x="657" y="357" type="curve"/>
      <point x="657" y="0" type="line"/>
      <point x="1020" y="0" type="line"/>
      <point x="1020" y="51" type="line"/>
      <point x="706" y="51" type="line"/>
      <point x="706" y="316" type="line"/>
      <point x="941" y="390"/>
      <point x="1022" y="629"/>
      <point x="1022" y="840" type="curve" smooth="yes"/>
      <point x="1022" y="896" type="line" smooth="yes"/>
      <point x="1022" y="1268"/>
      <point x="867" y="1476"/>
      <point x="580" y="1476" type="curve"/>
      <point x="294" y="1476"/>
      <point x="139" y="1268"/>
      <point x="139" y="896" type="curve" smooth="yes"/>
      <point x="139" y="840" type="line" smooth="yes"/>
      <point x="139" y="629"/>
      <point x="210" y="390"/>
      <point x="455" y="316" type="curve"/>
      <point x="455" y="51" type="line"/>
      <point x="141" y="51" type="line"/>
    </contour>
  </outline>
</glyph>
<glyph name="alpha" format="2">
  <advance width="1014"/>
  <unicode hex="03B1"/>
  <anchor x="493.0" y="1082" name="GRK_top"/>
  <outline>
    <contour>
      <point x="490" y="-22" type="curve"/>
      <point x="645" y="-22"/>
      <point x="719" y="62"/>
      <point x="778" y="137" type="curve"/>
      <point x="779" y="137" type="line"/>
      <point x="779" y="10"/>
      <point x="857" y="-20"/>
      <point x="922" y="-20" type="curve"/>
      <point x="939" y="-20"/>
      <point x="966" y="-17"/>
      <point x="986" y="-9" type="curve"/>
      <point x="985" y="42" type="line"/>
      <point x="970" y="36"/>
      <point x="951" y="31"/>
      <point x="929" y="31" type="curve" smooth="yes"/>
      <point x="884" y="31"/>
      <point x="831" y="43"/>
      <point x="831" y="141" type="curve" smooth="yes"/>
      <point x="831" y="1082" type="line"/>
      <point x="781" y="1082" type="line"/>
      <point x="780" y="950" type="line"/>
      <point x="779" y="950" type="line"/>
      <point x="702" y="1053"/>
      <point x="599" y="1102"/>
      <point x="484" y="1102" type="curve"/>
      <point x="244" y="1102"/>
      <point x="122" y="921"/>
      <point x="122" y="554" type="curve" smooth="yes"/>
      <point x="122" y="523" type="line" smooth="yes"/>
      <point x="122" y="139"/>
      <point x="258" y="-22"/>
    </contour>
    <contour>
      <point x="489" y="30" type="curve" smooth="yes"/>
      <point x="273" y="30"/>
      <point x="177" y="189"/>
      <point x="177" y="510" type="curve" smooth="yes"/>
      <point x="177" y="594" type="line" smooth="yes"/>
      <point x="177" y="895"/>
      <point x="291" y="1051"/>
      <point x="486" y="1051" type="curve" smooth="yes"/>
      <point x="639" y="1051"/>
      <point x="737" y="962"/>
      <point x="779" y="873" type="curve"/>
      <point x="779" y="218" type="line"/>
      <point x="727" y="118"/>
      <point x="639" y="30"/>
    </contour>
  </outline>
</glyph>
<glyph name="epsilon" format="2">
  <advance width="989"/>
  <unicode hex="03B5"/>
  <anchor x="499" y="1082" name="GRK_top"/>
  <outline>
    <contour>
      <point x="461" y="-22" type="curve"/>
      <point x="752" y="-22"/>
      <point x="849" y="112"/>
      <point x="859" y="352" type="curve"/>
      <point x="807" y="352" type="line"/>
      <point x="796" y="108"/>
      <point x="701" y="30"/>
      <point x="457" y="30" type="curve"/>
      <point x="244" y="30"/>
      <point x="167" y="127"/>
      <point x="167" y="280" type="curve"/>
      <point x="167" y="421"/>
      <point x="242" y="521"/>
      <point x="415" y="521" type="curve"/>
      <point x="619" y="521" type="line"/>
      <point x="619" y="574" type="line"/>
      <point x="415" y="574" type="line"/>
      <point x="273" y="574"/>
      <point x="198" y="649"/>
      <point x="198" y="789" type="curve"/>
      <point x="198" y="920"/>
      <point x="269" y="1051"/>
      <point x="500" y="1051" type="curve" smooth="yes"/>
      <point x="749" y="1051"/>
      <point x="799" y="878"/>
      <point x="805" y="729" type="curve"/>
      <point x="857" y="729" type="line"/>
      <point x="850" y="941"/>
      <point x="761" y="1102"/>
      <point x="500" y="1102" type="curve" smooth="yes"/>
      <point x="288" y="1102"/>
      <point x="147" y="985"/>
      <point x="147" y="786" type="curve"/>
      <point x="147" y="653"/>
      <point x="209" y="557"/>
      <point x="354" y="534" type="curve"/>
      <point x="354" y="551" type="line"/>
      <point x="186" y="534"/>
      <point x="116" y="425"/>
      <point x="116" y="270" type="curve"/>
      <point x="116" y="77"/>
      <point x="249" y="-22"/>
    </contour>
  </outline>
</glyph>
<glyph name="zeta" format="2">
  <advance width="853"/>
  <unicode hex="03B6"/>
  <outline>
    <contour>
      <point x="544" y="-348" type="curve"/>
      <point x="593" y="-348" type="line"/>
      <point x="608" y="-310"/>
      <point x="630" y="-231"/>
      <point x="630" y="-161" type="curve" smooth="yes"/>
      <point x="630" y="-36"/>
      <point x="574" y="16"/>
      <point x="405" y="69" type="curve" smooth="yes"/>
      <point x="373" y="79" type="line" smooth="yes"/>
      <point x="212" y="127"/>
      <point x="108" y="177"/>
      <point x="108" y="338" type="curve" smooth="yes"/>
      <point x="108" y="490"/>
      <point x="170" y="642"/>
      <point x="338" y="917" type="curve" smooth="yes"/>
      <point x="687" y="1486" type="line"/>
      <point x="687" y="1536" type="line"/>
      <point x="54" y="1536" type="line"/>
      <point x="54" y="1479" type="line"/>
      <point x="648" y="1479" type="line"/>
      <point x="644" y="1514" type="line"/>
      <point x="295" y="943" type="line" smooth="yes"/>
      <point x="151" y="708"/>
      <point x="56" y="515"/>
      <point x="56" y="337" type="curve"/>
      <point x="56" y="183"/>
      <point x="138" y="96"/>
      <point x="348" y="33" type="curve" smooth="yes"/>
      <point x="395" y="19" type="line" smooth="yes"/>
      <point x="538" y="-24"/>
      <point x="579" y="-60"/>
      <point x="579" y="-165" type="curve" smooth="yes"/>
      <point x="579" y="-228"/>
      <point x="564" y="-287"/>
    </contour>
  </outline>
</glyph>
<glyph name="iota" format="2">
  <advance width="523"/>
  <unicode hex="03B9"/>
  <anchor x="192" y="1082" name="GRK_top"/>
  <outline>
    <contour>
      <point x="353" y="-20" type="curve" smooth="yes"/>
      <point x="380" y="-20"/>
      <point x="427" y="-18"/>
      <point x="451" y="-9" type="curve"/>
      <point x="443" y="40" type="line"/>
      <point x="412" y="34"/>
      <point x="389" y="31"/>
      <point x="352" y="31" type="curve" smooth="yes"/>
      <point x="281" y="31"/>
      <point x="218" y="66"/>
      <point x="218" y="259" type="curve"/>
      <point x="218" y="1082" type="line"/>
      <point x="164" y="1082" type="line"/>
      <point x="164" y="259" type="line"/>
      <point x="164" y="42"/>
      <point x="236" y="-20"/>
    </contour>
  </outline>
</glyph>
<glyph name="kappa" format="2">
  <advance width="960"/>
  <unicode hex="03BA"/>
  <outline>
    <contour>
      <point x="163" y="0" type="line"/>
      <point x="215" y="0" type="line"/>
      <point x="215" y="528" type="line"/>
      <point x="404" y="528" type="line"/>
      <point x="786" y="0" type="line"/>
      <point x="851" y="0" type="line"/>
      <point x="451" y="555" type="line"/>
      <point x="801" y="1082" type="line"/>
      <point x="736" y="1082" type="line"/>
      <point x="402" y="581" type="line"/>
      <point x="215" y="581" type="line"/>
      <point x="215" y="1082" type="line"/>
      <point x="163" y="1082" type="line"/>
    </contour>
  </outline>
</glyph>
<glyph name="mu" format="2">
  <advance width="991"/>
  <unicode hex="03BC"/>
  <outline>
    <contour>
      <point x="778" y="1082" type="line"/>
      <point x="778" y="250" type="line"/>
      <point x="781" y="0" type="line"/>
      <point x="830" y="0" type="line"/>
      <point x="830" y="1082" type="line"/>
    </contour>
    <contour>
      <point x="782" y="503" type="line"/>
      <point x="782" y="242"/>
      <point x="727" y="30"/>
      <point x="470" y="30" type="curve" smooth="yes"/>
      <point x="337" y="30"/>
      <point x="214" y="115"/>
      <point x="214" y="439" type="curve"/>
      <point x="178" y="439" type="line"/>
      <point x="170" y="380" type="line"/>
      <point x="194" y="71"/>
      <point x="334" y="-19"/>
      <point x="477" y="-19" type="curve" smooth="yes"/>
      <point x="727" y="-19"/>
      <point x="827" y="202"/>
      <point x="827" y="505" type="curve"/>
    </contour>
    <contour>
      <point x="164" y="1082" type="line"/>
      <point x="164" y="-416" type="line"/>
      <point x="214" y="-416" type="line"/>
      <point x="214" y="1082" type="line"/>
    </contour>
  </outline>
</glyph>
<glyph name="pi" format="2">
  <advance width="1072"/>
  <unicode hex="03C0"/>
  <outline>
    <contour>
      <point x="81" y="1025" type="line"/>
      <point x="1006" y="1025" type="line"/>
      <point x="1006" y="1082" type="line"/>
      <point x="81" y="1082" type="line"/>
    </contour>
    <contour>
      <point x="209" y="0" type="line"/>
      <point x="262" y="0" type="line"/>
      <point x="262" y="1054" type="line"/>
      <point x="209" y="1054" type="line"/>
    </contour>
    <contour>
      <point x="950" y="-20" type="curve"/>
      <point x="959" y="-20"/>
      <point x="990" y="-19"/>
      <point x="1015" y="-9" type="curve"/>
      <point x="1014" y="42" type="line"/>
      <point x="992" y="33"/>
      <point x="973" y="31"/>
      <point x="953" y="31" type="curve"/>
      <point x="899" y="31"/>
      <point x="879" y="63"/>
      <point x="879" y="140" type="curve"/>
      <point x="879" y="1054" type="line"/>
      <point x="826" y="1054" type="line"/>
      <point x="826" y="129" type="line"/>
      <point x="826" y="41"/>
      <point x="859" y="-20"/>
    </contour>
  </outline>
</glyph>
<glyph name="finalsigma" format="2">
  <advance width="963"/>
  <unicode hex="03C2"/>
  <outline>
    <contour>
      <point x="639" y="-348" type="curve"/>
      <point x="688" y="-348" type="line"/>
      <point x="703" y="-310"/>
      <point x="725" y="-231"/>
      <point x="725" y="-161" type="curve" smooth="yes"/>
      <point x="725" y="-36"/>
      <point x="669" y="16"/>
      <point x="500" y="69" type="curve" smooth="yes"/>
      <point x="468" y="79" type="line" smooth="yes"/>
      <point x="307" y="127"/>
      <point x="172" y="197"/>
      <point x="172" y="448" type="curve" smooth="yes"/>
      <point x="172" y="599" type="line" smooth="yes"/>
      <point x="172" y="897"/>
      <point x="273" y="1051"/>
      <point x="498" y="1051" type="curve"/>
      <point x="644" y="1051"/>
      <point x="788" y="973"/>
      <point x="788" y="729" type="curve" smooth="yes"/>
      <point x="788" y="725" type="line"/>
      <point x="840" y="725" type="line"/>
      <point x="840" y="729" type="line" smooth="yes"/>
      <point x="840" y="1005"/>
      <point x="674" y="1102"/>
      <point x="498" y="1102" type="curve" smooth="yes"/>
      <point x="257" y="1102"/>
      <point x="121" y="941"/>
      <point x="121" y="599" type="curve" smooth="yes"/>
      <point x="121" y="443" type="line" smooth="yes"/>
      <point x="121" y="203"/>
      <point x="233" y="96"/>
      <point x="443" y="33" type="curve" smooth="yes"/>
      <point x="490" y="19" type="line" smooth="yes"/>
      <point x="633" y="-24"/>
      <point x="674" y="-60"/>
      <point x="674" y="-165" type="curve" smooth="yes"/>
      <point x="674" y="-228"/>
      <point x="659" y="-287"/>
    </contour>
  </outline>
</glyph>
<glyph name="sigma" format="2">
  <advance width="989"/>
  <unicode hex="03C3"/>
  <outline>
    <contour>
      <point x="494" y="-22" type="curve" smooth="yes"/>
      <point x="732" y="-22"/>
      <point x="891" y="204"/>
      <point x="891" y="513" type="curve" smooth="yes"/>
      <point x="891" y="542" type="line" smooth="yes"/>
      <point x="891" y="764"/>
      <point x="827" y="990"/>
      <point x="625" y="1051" type="curve"/>
      <point x="625" y="1025" type="line"/>
      <point x="964" y="1025" type="line"/>
      <point x="964" y="1082" type="line"/>
      <point x="499" y="1082" type="line" smooth="yes"/>
      <point x="255" y="1082"/>
      <point x="93" y="916"/>
      <point x="93" y="538" type="curve" smooth="yes"/>
      <point x="93" y="509" type="line" smooth="yes"/>
      <point x="93" y="177"/>
      <point x="228" y="-22"/>
    </contour>
    <contour>
      <point x="494" y="30" type="curve" smooth="yes"/>
      <point x="260" y="30"/>
      <point x="145" y="211"/>
      <point x="145" y="505" type="curve" smooth="yes"/>
      <point x="145" y="541" type="line" smooth="yes"/>
      <point x="145" y="819"/>
      <point x="245" y="1031"/>
      <point x="499" y="1031" type="curve"/>
      <point x="720" y="1031"/>
      <point x="840" y="831"/>
      <point x="840" y="545" type="curve" smooth="yes"/>
      <point x="840" y="509" type="line" smooth="yes"/>
      <point x="840" y="281"/>
      <point x="721" y="30"/>
    </contour>
  </outline>
</glyph>
<glyph name="tau" format="2">
  <advance width="911"/>
  <unicode hex="03C4"/>
  <outline>
    <contour>
      <point x="99" y="1025" type="line"/>
      <point x="817" y="1025" type="line"/>
      <point x="817" y="1082" type="line"/>
      <point x="99" y="1082" type="line"/>
    </contour>
    <contour>
      <point x="607" y="-20" type="curve" smooth="yes"/>
      <point x="634" y="-20"/>
      <point x="681" y="-18"/>
      <point x="705" y="-9" type="curve"/>
      <point x="697" y="40" type="line"/>
      <point x="666" y="34"/>
      <point x="643" y="31"/>
      <point x="606" y="31" type="curve" smooth="yes"/>
      <point x="535" y="31"/>
      <point x="472" y="66"/>
      <point x="472" y="259" type="curve"/>
      <point x="472" y="1054" type="line"/>
      <point x="418" y="1054" type="line"/>
      <point x="418" y="259" type="line"/>
      <point x="418" y="42"/>
      <point x="490" y="-20"/>
    </contour>
  </outline>
</glyph>
<glyph name="phi" format="2">
  <advance width="1200"/>
  <unicode hex="03C6"/>
  <outline>
    <contour>
      <point x="573" y="-416" type="line"/>
      <point x="626" y="-416" type="line"/>
      <point x="626" y="-22" type="line"/>
      <point x="871" y="-19"/>
      <point x="1059" y="157"/>
      <point x="1059" y="501" type="curve" smooth="yes"/>
      <point x="1059" y="568" type="line" smooth="yes"/>
      <point x="1059" y="945"/>
      <point x="851" y="1099"/>
      <point x="626" y="1102" type="curve"/>
      <point x="626" y="1536" type="line"/>
      <point x="573" y="1536" type="line"/>
      <point x="573" y="1102" type="line"/>
      <point x="348" y="1099"/>
      <point x="140" y="945"/>
      <point x="140" y="568" type="curve" smooth="yes"/>
      <point x="140" y="501" type="line" smooth="yes"/>
      <point x="140" y="157"/>
      <point x="328" y="-19"/>
      <point x="573" y="-22" type="curve"/>
    </contour>
    <contour>
      <point x="573" y="30" type="line"/>
      <point x="341" y="33"/>
      <point x="192" y="208"/>
      <point x="192" y="489" type="curve" smooth="yes"/>
      <point x="192" y="580" type="line" smooth="yes"/>
      <point x="192" y="864"/>
      <point x="330" y="1048"/>
      <point x="573" y="1051" type="curve"/>
    </contour>
    <contour>
      <point x="626" y="30" type="curve"/>
      <point x="626" y="1051" type="line"/>
      <point x="869" y="1048"/>
      <point x="1007" y="864"/>
      <point x="1007" y="580" type="curve" smooth="yes"/>
      <point x="1007" y="489" type="line" smooth="yes"/>
      <point x="1007" y="208"/>
      <point x="858" y="33"/>
    </contour>
  </outline>
</glyph>
<glyph name="chi" format="2">
  <advance width="934"/>
  <unicode hex="03C7"/>
  <outline>
    <contour>
      <point x="56" y="-416" type="line"/>
      <point x="122" y="-416" type="line"/>
      <point x="444" y="298" type="line"/>
      <point x="453" y="298" type="line"/>
      <point x="814" y="1082" type="line"/>
      <point x="748" y="1082" type="line"/>
      <point x="426" y="368" type="line"/>
      <point x="417" y="368" type="line"/>
    </contour>
    <contour>
      <point x="721" y="-416" type="line"/>
      <point x="790" y="-416" type="line"/>
      <point x="468" y="359" type="line"/>
      <point x="460" y="359" type="line"/>
      <point x="169" y="1082" type="line"/>
      <point x="100" y="1082" type="line"/>
      <point x="416" y="322" type="line"/>
      <point x="424" y="322" type="line"/>
    </contour>
  </outline>
</glyph>
<glyph name="psi" format="2">
  <advance width="1200"/>
  <unicode hex="03C8"/>
  <outline>
    <contour>
      <point x="574" y="-416" type="line"/>
      <point x="627" y="-416" type="line"/>
      <point x="627" y="-20" type="line"/>
      <point x="878" y="-9"/>
      <point x="1066" y="80"/>
      <point x="1066" y="480" type="curve" smooth="yes"/>
      <point x="1066" y="1082" type="line"/>
      <point x="1013" y="1082" type="line"/>
      <point x="1013" y="480" type="line"/>
      <point x="1013" y="255"/>
      <point x="969" y="43"/>
      <point x="627" y="31" type="curve"/>
      <point x="627" y="1536" type="line"/>
      <point x="574" y="1536" type="line"/>
      <point x="574" y="31" type="line"/>
      <point x="232" y="43"/>
      <point x="188" y="255"/>
      <point x="188" y="480" type="curve"/>
      <point x="188" y="1082" type="line"/>
      <point x="135" y="1082" type="line"/>
      <point x="135" y="480" type="line" smooth="yes"/>
      <point x="135" y="80"/>
      <point x="323" y="-9"/>
      <point x="574" y="-20" type="curve"/>
    </contour>
  </outline>
</glyph>
<glyph name="kaisymbol" format="2">
  <advance width="1202"/>
  <unicode hex="03D7"/>
  <outline>
    <contour>
      <point x="538" y="-497" type="line"/>
      <point x="1012" y="0" type="line"/>
      <point x="632" y="555" type="line"/>
      <point x="962" y="1082" type="line"/>
      <point x="897" y="1082" type="line"/>
      <point x="583" y="581" type="line"/>
      <point x="396" y="581" type="line"/>
      <point x="396" y="1082" type="line"/>
      <point x="344" y="1082" type="line"/>
      <point x="344" y="0" type="line"/>
      <point x="396" y="0" type="line"/>
      <point x="396" y="528" type="line"/>
      <point x="585" y="528" type="line"/>
      <point x="945" y="3" type="line"/>
      <point x="498" y="-462" type="line"/>
    </contour>
  </outline>
</glyph>
<glyph name="uni03F5" format="2">
  <advance width="788"/>
  <unicode hex="03F5"/>
  <outline>
    <contour>
      <point x="474" y="51" type="line"/>
      <point x="248" y="51"/>
      <point x="148" y="246"/>
      <point x="148" y="520" type="curve" smooth="yes"/>
      <point x="148" y="562" type="line" smooth="yes"/>
      <point x="148" y="834"/>
      <point x="247" y="1031"/>
      <point x="471" y="1031" type="curve" smooth="yes"/>
      <point x="731" y="1031" type="line"/>
      <point x="731" y="1082" type="line"/>
      <point x="471" y="1082" type="line" smooth="yes"/>
      <point x="232" y="1081"/>
      <point x="97" y="879"/>
      <point x="97" y="562" type="curve" smooth="yes"/>
      <point x="97" y="520" type="line" smooth="yes"/>
      <point x="97" y="203"/>
      <point x="232" y="0"/>
      <point x="474" y="0" type="curve" smooth="yes"/>
      <point x="731" y="0" type="line"/>
      <point x="731" y="51" type="line"/>
    </contour>
    <contour>
      <point x="628" y="570" type="line"/>
      <point x="130" y="570" type="line"/>
      <point x="130" y="519" type="line"/>
      <point x="628" y="519" type="line"/>
    </contour>
  </outline>
</glyph>
<glyph name="uni03FE" format="2">
  <advance width="1164"/>
  <unicode hex="03FE"/>
  <outline>
    <contour>
      <point x="978" y="444" type="line"/>
      <point x="953" y="157"/>
      <point x="817" y="31"/>
      <point x="589" y="31" type="curve" smooth="yes"/>
      <point x="352" y="31"/>
      <point x="192" y="263"/>
      <point x="192" y="617" type="curve" smooth="yes"/>
      <point x="192" y="840" type="line" smooth="yes"/>
      <point x="192" y="1193"/>
      <point x="352" y="1426"/>
      <point x="591" y="1426" type="curve" smooth="yes"/>
      <point x="822" y="1426"/>
      <point x="952" y="1281"/>
      <point x="978" y="1013" type="curve"/>
      <point x="1032" y="1013" type="line"/>
      <point x="1007" y="1324"/>
      <point x="839" y="1476"/>
      <point x="591" y="1476" type="curve" smooth="yes"/>
      <point x="316" y="1476"/>
      <point x="140" y="1217"/>
      <point x="140" y="838" type="curve" smooth="yes"/>
      <point x="140" y="617" type="line" smooth="yes"/>
      <point x="140" y="238"/>
      <point x="317" y="-20"/>
      <point x="589" y="-20" type="curve" smooth="yes"/>
      <point x="839" y="-20"/>
      <point x="1006" y="130"/>
      <point x="1032" y="444" type="curve"/>
    </contour>
    <contour>
      <point x="560" y="727" type="curve" smooth="yes"/>
      <point x="560" y="697"/>
      <point x="581" y="675"/>
      <point x="609" y="675" type="curve" smooth="yes"/>
      <point x="638" y="675"/>
      <point x="660" y="697"/>
      <point x="660" y="727" type="curve" smooth="yes"/>
      <point x="660" y="758"/>
      <point x="638" y="781"/>
      <point x="609" y="781" type="curve" smooth="yes"/>
      <point x="581" y="781"/>
      <point x="560" y="758"/>
    </contour>
  </outline>
</glyph>
<glyph name="uni03FF" format="2">
  <advance width="1155"/>
  <unicode hex="03FF"/>
  <outline>
    <contour>
      <point x="133" y="444" type="line"/>
      <point x="159" y="91"/>
      <point x="326" y="-22"/>
      <point x="575" y="-22" type="curve" smooth="yes"/>
      <point x="848" y="-22"/>
      <point x="1017" y="192"/>
      <point x="1017" y="562" type="curve" smooth="yes"/>
      <point x="1017" y="913" type="line" smooth="yes"/>
      <point x="1017" y="1272"/>
      <point x="848" y="1476"/>
      <point x="574" y="1476" type="curve" smooth="yes"/>
      <point x="325" y="1476"/>
      <point x="158" y="1361"/>
      <point x="133" y="1013" type="curve"/>
      <point x="186" y="1013" type="line"/>
      <point x="211" y="1320"/>
      <point x="343" y="1426"/>
      <point x="574" y="1426" type="curve" smooth="yes"/>
      <point x="813" y="1426"/>
      <point x="964" y="1245"/>
      <point x="964" y="915" type="curve" smooth="yes"/>
      <point x="964" y="562" type="line" smooth="yes"/>
      <point x="964" y="217"/>
      <point x="813" y="29"/>
      <point x="575" y="29" type="curve" smooth="yes"/>
      <point x="347" y="29"/>
      <point x="211" y="118"/>
      <point x="186" y="444" type="curve"/>
    </contour>
    <contour>
      <point x="517" y="722" type="curve" smooth="yes"/>
      <point x="520" y="695"/>
      <point x="542" y="677"/>
      <point x="567" y="680" type="curve" smooth="yes"/>
      <point x="591" y="684"/>
      <point x="611" y="706"/>
      <point x="608" y="732" type="curve" smooth="yes"/>
      <point x="605" y="760"/>
      <point x="582" y="779"/>
      <point x="557" y="776" type="curve" smooth="yes"/>
      <point x="533" y="772"/>
      <point x="514" y="749"/>
    </contour>
  </outline>
</glyph>
<glyph name="uni047E" format="2">
  <advance width="1595"/>
  <unicode hex="047E"/>
  <outline>
    <contour>
      <point x="763" y="1707" type="line"/>
      <point x="763" y="1603" type="line"/>
      <point x="814" y="1603" type="line"/>
      <point x="814" y="1707" type="line"/>
      <point x="1096" y="1707" type="line"/>
      <point x="1094" y="1760" type="line"/>
      <point x="496" y="1760" type="line"/>
      <point x="496" y="1707" type="line"/>
    </contour>
    <contour>
      <point x="766" y="1456" type="line"/>
      <point x="766" y="429" type="line" smooth="yes"/>
      <point x="766" y="171"/>
      <point x="652" y="30"/>
      <point x="496" y="30" type="curve" smooth="yes"/>
      <point x="342" y="30"/>
      <point x="228" y="171"/>
      <point x="228" y="429" type="curve" smooth="yes"/>
      <point x="228" y="1456" type="line"/>
      <point x="174" y="1456" type="line"/>
      <point x="174" y="429" type="line" smooth="yes"/>
      <point x="174" y="127"/>
      <point x="311" y="-19"/>
      <point x="496" y="-19" type="curve" smooth="yes"/>
      <point x="681" y="-19"/>
      <point x="817" y="127"/>
      <point x="817" y="429" type="curve" smooth="yes"/>
      <point x="817" y="1456" type="line"/>
    </contour>
    <contour>
      <point x="1359" y="1456" type="line"/>
      <point x="1359" y="429" type="line" smooth="yes"/>
      <point x="1359" y="171"/>
      <point x="1244" y="30"/>
      <point x="1090" y="30" type="curve" smooth="yes"/>
      <point x="934" y="30"/>
      <point x="820" y="171"/>
      <point x="820" y="429" type="curve" smooth="yes"/>
      <point x="820" y="1456" type="line"/>
      <point x="770" y="1456" type="line"/>
      <point x="770" y="429" type="line" smooth="yes"/>
      <point x="770" y="127"/>
      <point x="906" y="-19"/>
      <point x="1090" y="-19" type="curve" smooth="yes"/>
      <point x="1275" y="-19"/>
      <point x="1412" y="127"/>
      <point x="1412" y="429" type="curve" smooth="yes"/>
      <point x="1412" y="1456" type="line"/>
    </contour>
  </outline>
</glyph>
<glyph name="uni049F" format="2">
  <advance width="883"/>
  <unicode hex="049F"/>
  <anchor x="460" y="115" name="bottom"/>
  <anchor x="482" y="1613" name="parent_top"/>
  <anchor x="864" y="1613" name="top0315"/>
  <anchor x="482" y="1613" name="top"/>
  <outline>
    <contour>
      <point x="236" y="1536" type="line"/>
      <point x="184" y="1536" type="line"/>
      <point x="184" y="0" type="line"/>
      <point x="236" y="0" type="line"/>
    </contour>
    <contour>
      <point x="820" y="1082" type="line"/>
      <point x="752" y="1082" type="line"/>
      <point x="343" y="604" type="line"/>
      <point x="206" y="604" type="line"/>
      <point x="225" y="556" type="line"/>
      <point x="367" y="556" type="line"/>
    </contour>
    <contour>
      <point x="786" y="0" type="line"/>
      <point x="852" y="0" type="line"/>
      <point x="375" y="618" type="line"/>
      <point x="342" y="579" type="line"/>
    </contour>
    <contour>
      <point x="570" y="1315" type="line"/>
      <point x="68" y="1315" type="line"/>
      <point x="68" y="1264" type="line"/>
      <point x="570" y="1264" type="line"/>
    </contour>
  </outline>
</glyph>
<glyph name="uni04C7" format="2">
  <advance width="1252"/>
  <unicode hex="04C7"/>
  <outline>
    <contour>
      <point x="183" y="1456" type="line"/>
      <point x="183" y="0" type="line"/>
      <point x="236" y="0" type="line"/>
      <point x="236" y="697" type="line"/>
      <point x="1014" y="697" type="line"/>
      <point x="1014" y="-91" type="line" smooth="yes"/>
      <point x="1014" y="-280"/>
      <point x="945" y="-387"/>
      <point x="825" y="-387" type="curve" smooth="yes"/>
      <point x="794" y="-387"/>
      <point x="756" y="-375"/>
      <point x="740" y="-367" type="curve"/>
      <point x="728" y="-415" type="line"/>
      <point x="760" y="-428"/>
      <point x="790" y="-437"/>
      <point x="825" y="-437" type="curve" smooth="yes"/>
      <point x="977" y="-437"/>
      <point x="1068" y="-314"/>
      <point x="1068" y="-91" type="curve" smooth="yes"/>
      <point x="1068" y="1456" type="line"/>
      <point x="1014" y="1456" type="line"/>
      <point x="1014" y="746" type="line"/>
      <point x="236" y="746" type="line"/>
      <point x="236" y="1456" type="line"/>
    </contour>
  </outline>
</glyph>
<glyph name="uni0504" format="2">
  <advance width="1405"/>
  <unicode hex="0504"/>
  <anchor x="533" y="1612" name="top"/>
  <anchor x="533" y="10" name="bottom"/>
  <anchor x="1386" y="1612" name="top0315"/>
  <anchor x="533" y="1612" name="parent_top"/>
  <outline>
    <contour>
      <point x="397" y="717" type="line"/>
      <point x="420" y="728"/>
      <point x="416" y="728"/>
      <point x="462" y="736" type="curve" smooth="yes"/>
      <point x="466" y="736"/>
      <point x="479" y="728"/>
      <point x="484" y="729" type="curve" smooth="yes"/>
      <point x="677" y="747"/>
      <point x="783" y="910"/>
      <point x="783" y="1106" type="curve"/>
      <point x="783" y="1335"/>
      <point x="634" y="1456"/>
      <point x="366" y="1456" type="curve"/>
      <point x="61" y="1456" type="line"/>
      <point x="61" y="1406" type="line"/>
      <point x="366" y="1406" type="line"/>
      <point x="624" y="1406"/>
      <point x="730" y="1288"/>
      <point x="730" y="1108" type="curve"/>
      <point x="730" y="884"/>
      <point x="616" y="770"/>
      <point x="398" y="770" type="curve"/>
      <point x="235" y="770" type="line"/>
      <point x="235" y="717" type="line"/>
    </contour>
    <contour>
      <point x="659" y="303" type="line"/>
      <point x="666" y="71"/>
      <point x="756" y="-25"/>
      <point x="903" y="-21" type="curve"/>
      <point x="1113" y="-21"/>
      <point x="1259" y="217"/>
      <point x="1263" y="529" type="curve"/>
      <point x="1265" y="666"/>
      <point x="1234" y="802"/>
      <point x="1204" y="932" type="curve"/>
      <point x="1150" y="932" type="line"/>
      <point x="1184" y="799"/>
      <point x="1212" y="662"/>
      <point x="1210" y="529" type="curve" smooth="yes"/>
      <point x="1207" y="285"/>
      <point x="1099" y="32"/>
      <point x="901" y="30" type="curve"/>
      <point x="786" y="30"/>
      <point x="711" y="142"/>
      <point x="712" y="303" type="curve"/>
      <point x="712" y="393" type="line"/>
      <point x="712" y="597"/>
      <point x="643" y="747"/>
      <point x="412" y="747" type="curve"/>
      <point x="397" y="717" type="line"/>
      <point x="580" y="717"/>
      <point x="659" y="587"/>
      <point x="659" y="391" type="curve"/>
      <point x="659" y="305" type="line"/>
    </contour>
  </outline>
</glyph>
<glyph name="uni1D00" format="2">
  <advance width="933"/>
  <unicode hex="1D00"/>
  <anchor x="469" y="1290" name="top"/>
  <anchor x="469" y="0" name="bottom"/>
  <anchor x="914" y="1290" name="top0315"/>
  <anchor x="469" y="1290" name="parent_top"/>
  <outline>
    <contour>
      <point x="452" y="969" type="line"/>
      <point x="481" y="1082" type="line"/>
      <point x="438" y="1082" type="line"/>
      <point x="35" y="0" type="line"/>
      <point x="90" y="0" type="line"/>
    </contour>
    <contour>
      <point x="842" y="0" type="line"/>
      <point x="898" y="0" type="line"/>
      <point x="496" y="1082" type="line"/>
      <point x="452" y="1082" type="line"/>
      <point x="482" y="969" type="line"/>
    </contour>
    <contour>
      <point x="740" y="357" type="line"/>
      <point x="185" y="357" type="line"/>
      <point x="185" y="307" type="line"/>
      <point x="740" y="307" type="line"/>
    </contour>
  </outline>
</glyph>
<glyph name="uni1D14" format="2">
  <advance width="1676"/>
  <unicode hex="1D14"/>
  <anchor x="799" y="1290" name="top"/>
  <anchor x="799" y="0" name="bottom"/>
  <anchor x="1657" y="1290" name="top0315"/>
  <anchor x="799" y="1290" name="parent_top"/>
  <outline>
    <contour>
      <point x="436" y="1099" type="curve"/>
      <point x="289" y="1099"/>
      <point x="188" y="1049"/>
      <point x="121" y="958" type="curve"/>
      <point x="147" y="918" type="line"/>
      <point x="208" y="1003"/>
      <point x="295" y="1051"/>
      <point x="436" y="1051" type="curve" smooth="yes"/>
      <point x="627" y="1051"/>
      <point x="770" y="842"/>
      <point x="770" y="582" type="curve" smooth="yes"/>
      <point x="770" y="517" type="line" smooth="yes"/>
      <point x="770" y="248"/>
      <point x="639" y="31"/>
      <point x="439" y="31" type="curve"/>
      <point x="257" y="31"/>
      <point x="139" y="198"/>
      <point x="139" y="417" type="curve"/>
      <point x="139" y="452" type="line"/>
      <point x="789" y="452" type="line"/>
      <point x="789" y="501" type="line"/>
      <point x="87" y="501" type="line"/>
      <point x="87" y="420" type="line" smooth="yes"/>
      <point x="87" y="145"/>
      <point x="232" y="-21"/>
      <point x="439" y="-21" type="curve" smooth="yes"/>
      <point x="652" y="-21"/>
      <point x="823" y="201"/>
      <point x="823" y="517" type="curve" smooth="yes"/>
      <point x="823" y="582" type="line" smooth="yes"/>
      <point x="823" y="884"/>
      <point x="641" y="1099"/>
    </contour>
    <contour>
      <point x="1579" y="561" type="line"/>
      <point x="1579" y="877"/>
      <point x="1415" y="1099"/>
      <point x="1176" y="1099" type="curve" smooth="yes"/>
      <point x="936" y="1099"/>
      <point x="775" y="877"/>
      <point x="775" y="561" type="curve"/>
      <point x="775" y="519" type="line"/>
      <point x="775" y="201"/>
      <point x="936" y="-21"/>
      <point x="1176" y="-21" type="curve" smooth="yes"/>
      <point x="1415" y="-21"/>
      <point x="1579" y="201"/>
      <point x="1579" y="519" type="curve"/>
    </contour>
    <contour>
      <point x="1526" y="519" type="line"/>
      <point x="1526" y="265"/>
      <point x="1399" y="31"/>
      <point x="1176" y="31" type="curve" smooth="yes"/>
      <point x="955" y="31"/>
      <point x="827" y="265"/>
      <point x="827" y="519" type="curve"/>
      <point x="827" y="561" type="line"/>
      <point x="827" y="823"/>
      <point x="955" y="1051"/>
      <point x="1176" y="1051" type="curve" smooth="yes"/>
      <point x="1399" y="1051"/>
      <point x="1526" y="823"/>
      <point x="1526" y="561" type="curve"/>
    </contour>
  </outline>
</glyph>
<glyph name="uni1D1F" format="2">
  <advance width="1110"/>
  <unicode hex="1D1F"/>
  <outline>
    <contour>
      <point x="792" y="1258" type="line"/>
      <point x="990" y="1258" type="line"/>
      <point x="990" y="1311" type="line"/>
      <point x="72" y="1311" type="line"/>
      <point x="72" y="1258" type="line"/>
    </contour>
    <contour>
      <point x="605" y="1265" type="line"/>
      <point x="720" y="1257"/>
      <point x="957" y="1148"/>
      <point x="957" y="875" type="curve" smooth="yes"/>
      <point x="957" y="701"/>
      <point x="890" y="578"/>
      <point x="646" y="578" type="curve" smooth="yes"/>
      <point x="72" y="578" type="line"/>
      <point x="72" y="527" type="line"/>
      <point x="648" y="527" type="line" smooth="yes"/>
      <point x="904" y="527"/>
      <point x="1007" y="656"/>
      <point x="1007" y="874" type="curve" smooth="yes"/>
      <point x="1007" y="1107"/>
      <point x="836" y="1264"/>
      <point x="653" y="1291" type="curve"/>
    </contour>
    <contour>
      <point x="646" y="526" type="line"/>
      <point x="759" y="518"/>
      <point x="953" y="397"/>
      <point x="957" y="138" type="curve" smooth="yes"/>
      <point x="957" y="-33"/>
      <point x="888" y="-159"/>
      <point x="630" y="-159" type="curve" smooth="yes"/>
      <point x="72" y="-159" type="line"/>
      <point x="72" y="-210" type="line"/>
      <point x="630" y="-210" type="line" smooth="yes"/>
      <point x="898" y="-210"/>
      <point x="1007" y="-82"/>
      <point x="1007" y="136" type="curve" smooth="yes"/>
      <point x="1007" y="371"/>
      <point x="846" y="532"/>
      <point x="671" y="561" type="curve"/>
    </contour>
  </outline>
</glyph>
<glyph name="uni1D2A" format="2">
  <advance width="1075"/>
  <unicode hex="1D2A"/>
  <anchor x="545" y="1290" name="top"/>
  <anchor x="545" y="0" name="bottom"/>
  <anchor x="1056" y="1290" name="top0315"/>
  <anchor x="545" y="1290" name="parent_top"/>
  <outline>
    <contour>
      <point x="569" y="1082" type="line"/>
      <point x="517" y="1082" type="line"/>
      <point x="517" y="0" type="line"/>
      <point x="569" y="0" type="line"/>
    </contour>
    <contour>
      <point x="937" y="1082" type="line"/>
      <point x="937" y="856" type="line" smooth="yes"/>
      <point x="937" y="563"/>
      <point x="779" y="379"/>
      <point x="537" y="379" type="curve" smooth="yes"/>
      <point x="296" y="379"/>
      <point x="137" y="563"/>
      <point x="137" y="856" type="curve" smooth="yes"/>
      <point x="137" y="1082" type="line"/>
      <point x="83" y="1082" type="line"/>
      <point x="83" y="856" type="line" smooth="yes"/>
      <point x="83" y="519"/>
      <point x="264" y="329"/>
      <point x="537" y="329" type="curve" smooth="yes"/>
      <point x="810" y="329"/>
      <point x="991" y="519"/>
      <point x="991" y="856" type="curve" smooth="yes"/>
      <point x="991" y="1082" type="line"/>
    </contour>
  </outline>
</glyph>
<glyph name="uni1D5F" format="2">
  <advance width="767"/>
  <unicode hex="1D5F"/>
  <outline>
    <contour>
      <point x="165" y="1626" type="curve" smooth="yes"/>
      <point x="165" y="1556"/>
      <point x="201" y="1471"/>
      <point x="318" y="1426" type="curve"/>
      <point x="318" y="1422" type="line"/>
      <point x="209" y="1404"/>
      <point x="86" y="1274"/>
      <point x="86" y="1058" type="curve" smooth="yes"/>
      <point x="86" y="1025" type="line" smooth="yes"/>
      <point x="86" y="798"/>
      <point x="208" y="642"/>
      <point x="385" y="642" type="curve" smooth="yes"/>
      <point x="562" y="642"/>
      <point x="682" y="798"/>
      <point x="682" y="1025" type="curve" smooth="yes"/>
      <point x="682" y="1058" type="line" smooth="yes"/>
      <point x="682" y="1219"/>
      <point x="588" y="1395"/>
      <point x="406" y="1443" type="curve" smooth="yes"/>
      <point x="272" y="1479"/>
      <point x="218" y="1537"/>
      <point x="218" y="1624" type="curve" smooth="yes"/>
      <point x="218" y="1708"/>
      <point x="286" y="1762"/>
      <point x="388" y="1762" type="curve" smooth="yes"/>
      <point x="461" y="1762"/>
      <point x="511" y="1746"/>
      <point x="567" y="1715" type="curve"/>
      <point x="584" y="1755" type="line"/>
      <point x="524" y="1799"/>
      <point x="456" y="1813"/>
      <point x="388" y="1813" type="curve" smooth="yes"/>
      <point x="274" y="1813"/>
      <point x="165" y="1746"/>
    </contour>
    <contour>
      <point x="137" y="1058" type="line"/>
      <point x="137" y="1231"/>
      <point x="224" y="1382"/>
      <point x="398" y="1383" type="curve"/>
      <point x="519" y="1358"/>
      <point x="630" y="1245"/>
      <point x="630" y="1058" type="curve" smooth="yes"/>
      <point x="630" y="1025" type="line" smooth="yes"/>
      <point x="630" y="840"/>
      <point x="538" y="691"/>
      <point x="385" y="691" type="curve" smooth="yes"/>
      <point x="233" y="691"/>
      <point x="137" y="840"/>
      <point x="137" y="1025" type="curve" smooth="yes"/>
    </contour>
  </outline>
</glyph>
<glyph name="uni1DD0" format="2">
  <unicode hex="1DD0"/>
  <anchor x="-327" y="0" name="_bottom"/>
  <outline>
    <contour>
      <point x="-482" y="-66" type="curve"/>
      <point x="-482" y="-66"/>
      <point x="-582" y="-353"/>
      <point x="-582" y="-353" type="curve"/>
      <point x="-582" y="-353"/>
      <point x="-554" y="-398"/>
      <point x="-554" y="-398" type="curve"/>
      <point x="-502" y="-365"/>
      <point x="-471" y="-361"/>
      <point x="-433" y="-361" type="curve" smooth="yes"/>
      <point x="-369" y="-361"/>
      <point x="-301" y="-436"/>
      <point x="-209" y="-436" type="curve" smooth="yes"/>
      <point x="-134" y="-436"/>
      <point x="-88" y="-391"/>
      <point x="-73" y="-272" type="curve"/>
      <point x="-73" y="-272"/>
      <point x="-112" y="-258"/>
      <point x="-112" y="-258" type="curve"/>
      <point x="-125" y="-334"/>
      <point x="-142" y="-383"/>
      <point x="-211" y="-383" type="curve" smooth="yes"/>
      <point x="-289" y="-383"/>
      <point x="-352" y="-309"/>
      <point x="-427" y="-309" type="curve" smooth="yes"/>
      <point x="-462" y="-309"/>
      <point x="-489" y="-315"/>
      <point x="-522" y="-339" type="curve"/>
      <point x="-522" y="-339"/>
      <point x="-431" y="-66"/>
      <point x="-431" y="-66" type="curve"/>
      <point x="-431" y="-66"/>
      <point x="-482" y="-66"/>
    </contour>
  </outline>
</glyph>
<glyph name="uni2094" format="2">
  <advance width="719"/>
  <unicode hex="2094"/>
  <outline>
    <contour>
      <point x="295" y="395" type="curve" smooth="yes"/>
      <point x="185" y="395"/>
      <point x="113" y="342"/>
      <point x="68" y="266" type="curve"/>
      <point x="108" y="237" type="line"/>
      <point x="162" y="315"/>
      <point x="217" y="343"/>
      <point x="294" y="343" type="curve" smooth="yes"/>
      <point x="444" y="343"/>
      <point x="543" y="198"/>
      <point x="543" y="-5" type="curve" smooth="yes"/>
      <point x="543" y="-36" type="line" smooth="yes"/>
      <point x="543" y="-238"/>
      <point x="455" y="-384"/>
      <point x="309" y="-384" type="curve" smooth="yes"/>
      <point x="174" y="-384"/>
      <point x="100" y="-261"/>
      <point x="100" y="-95" type="curve" smooth="yes"/>
      <point x="100" y="-85" type="line"/>
      <point x="571" y="-85" type="line"/>
      <point x="571" y="-36" type="line"/>
      <point x="48" y="-36" type="line"/>
      <point x="48" y="-95" type="line" smooth="yes"/>
      <point x="48" y="-299"/>
      <point x="155" y="-438"/>
      <point x="309" y="-438" type="curve" smooth="yes"/>
      <point x="466" y="-438"/>
      <point x="595" y="-271"/>
      <point x="595" y="-36" type="curve" smooth="yes"/>
      <point x="595" y="-5" type="line" smooth="yes"/>
      <point x="595" y="228"/>
      <point x="464" y="395"/>
    </contour>
  </outline>
</glyph>
<glyph name="uni20BC" format="2">
  <advance width="1174"/>
  <unicode hex="20BC"/>
  <outline>
    <contour>
      <point x="1055" y="0" type="line"/>
      <point x="1055" y="241" type="line" smooth="yes"/>
      <point x="1055" y="616"/>
      <point x="871" y="878"/>
      <point x="587" y="878" type="curve" smooth="yes"/>
      <point x="303" y="878"/>
      <point x="118" y="616"/>
      <point x="118" y="241" type="curve" smooth="yes"/>
      <point x="118" y="0" type="line"/>
      <point x="173" y="0" type="line"/>
      <point x="173" y="243" type="line" smooth="yes"/>
      <point x="173" y="582"/>
      <point x="326" y="826"/>
      <point x="587" y="826" type="curve" smooth="yes"/>
      <point x="850" y="826"/>
      <point x="1002" y="582"/>
      <point x="1002" y="243" type="curve" smooth="yes"/>
      <point x="1002" y="0" type="line"/>
    </contour>
    <contour>
      <point x="611" y="1082" type="line"/>
      <point x="560" y="1082" type="line"/>
      <point x="560" y="0" type="line"/>
      <point x="611" y="0" type="line"/>
    </contour>
  </outline>
</glyph>
<glyph name="uni2B5D" format="2">
  <advance width="1043"/>
  <unicode hex="2B5D"/>
  <outline>
    <contour>
      <point x="388" y="1561" type="line"/>
      <point x="736" y="34" type="line"/>
      <point x="783" y="46" type="line"/>
      <point x="437" y="1561" type="line"/>
    </contour>
    <contour>
      <point x="462" y="192" type="line"/>
      <point x="775" y="-20" type="line"/>
      <point x="788" y="33" type="line"/>
      <point x="443" y="263" type="line"/>
    </contour>
    <contour>
      <point x="938" y="420" type="line"/>
      <point x="740" y="21" type="line"/>
      <point x="775" y="-20" type="line"/>
      <point x="957" y="349" type="line"/>
    </contour>
    <contour>
      <point x="87" y="1509" type="curve"/>
      <point x="87" y="1509"/>
      <point x="423" y="1509"/>
      <point x="423" y="1509" type="curve"/>
      <point x="423" y="1509"/>
      <point x="423" y="1561"/>
      <point x="423" y="1561" type="curve"/>
      <point x="423" y="1561"/>
      <point x="87" y="1561"/>
      <point x="87" y="1561" type="curve"/>
      <point x="87" y="1561"/>
      <point x="87" y="1509"/>
    </contour>
  </outline>
</glyph>
<glyph name="uni2C72" format="2">
  <advance width="1785"/>
  <unicode hex="2C72"/>
  <outline>
    <contour>
      <point x="486" y="327" type="line"/>
      <point x="413" y="0" type="line"/>
      <point x="459" y="0" type="line"/>
      <point x="766" y="1218" type="line"/>
      <point x="826" y="1456" type="line"/>
      <point x="778" y="1456" type="line"/>
    </contour>
    <contour>
      <point x="128" y="1456" type="line"/>
      <point x="70" y="1456" type="line"/>
      <point x="402" y="0" type="line"/>
      <point x="452" y="0" type="line"/>
      <point x="385" y="325" type="line"/>
    </contour>
    <contour>
      <point x="1228" y="325" type="line"/>
      <point x="1153" y="0" type="line"/>
      <point x="1209" y="0" type="line"/>
      <point x="1478" y="1198" type="line" smooth="yes"/>
      <point x="1514" y="1359"/>
      <point x="1553" y="1420"/>
      <point x="1612" y="1420" type="curve" smooth="yes"/>
      <point x="1660" y="1420"/>
      <point x="1693" y="1380"/>
      <point x="1746" y="1290" type="curve"/>
      <point x="1788" y="1326" type="line"/>
      <point x="1726" y="1435"/>
      <point x="1679" y="1474"/>
      <point x="1612" y="1474" type="curve" smooth="yes"/>
      <point x="1509" y="1474"/>
      <point x="1460" y="1365"/>
      <point x="1426" y="1214" type="curve" smooth="yes"/>
    </contour>
    <contour>
      <point x="835" y="1456" type="line"/>
      <point x="787" y="1456" type="line"/>
      <point x="849" y="1220" type="line"/>
      <point x="1150" y="0" type="line"/>
      <point x="1196" y="0" type="line"/>
      <point x="1125" y="327" type="line"/>
    </contour>
  </outline>
</glyph>
<glyph name="uni2DE0" format="2">
  <unicode hex="2DE0"/>
  <anchor x="-460" y="1170" name="_top"/>
  <outline>
    <contour>
      <point x="-336" y="1995" type="line"/>
      <point x="-336" y="1951"/>
      <point x="-352" y="1913"/>
      <point x="-456" y="1896" type="curve" smooth="yes"/>
      <point x="-584" y="1873"/>
      <point x="-666" y="1730"/>
      <point x="-666" y="1503" type="curve" smooth="yes"/>
      <point x="-666" y="1456" type="line"/>
      <point x="-628" y="1456" type="line"/>
      <point x="-630" y="1504" type="line"/>
      <point x="-630" y="1712"/>
      <point x="-555" y="1844"/>
      <point x="-441" y="1857" type="curve" smooth="yes"/>
      <point x="-345" y="1869"/>
      <point x="-298" y="1920"/>
      <point x="-298" y="1995" type="curve"/>
    </contour>
    <contour>
      <point x="-457" y="1192" type="curve" smooth="yes"/>
      <point x="-336" y="1192"/>
      <point x="-253" y="1298"/>
      <point x="-253" y="1447" type="curve" smooth="yes"/>
      <point x="-253" y="1467" type="line" smooth="yes"/>
      <point x="-253" y="1610"/>
      <point x="-334" y="1713"/>
      <point x="-459" y="1713" type="curve" smooth="yes"/>
      <point x="-552" y="1713"/>
      <point x="-621" y="1654"/>
      <point x="-649" y="1562" type="curve" smooth="yes"/>
      <point x="-660" y="1534"/>
      <point x="-666" y="1503"/>
      <point x="-666" y="1467" type="curve" smooth="yes"/>
      <point x="-666" y="1447" type="line" smooth="yes"/>
      <point x="-666" y="1298"/>
      <point x="-582" y="1192"/>
    </contour>
    <contour>
      <point x="-457" y="1229" type="curve" smooth="yes"/>
      <point x="-563" y="1229"/>
      <point x="-627" y="1324"/>
      <point x="-627" y="1447" type="curve" smooth="yes"/>
      <point x="-627" y="1467" type="line" smooth="yes"/>
      <point x="-627" y="1584"/>
      <point x="-563" y="1676"/>
      <point x="-461" y="1676" type="curve" smooth="yes"/>
      <point x="-355" y="1676"/>
      <point x="-292" y="1583"/>
      <point x="-292" y="1467" type="curve" smooth="yes"/>
      <point x="-292" y="1447" type="line" smooth="yes"/>
      <point x="-292" y="1324"/>
      <point x="-355" y="1229"/>
    </contour>
  </outline>
</glyph>
<glyph name="uni2DF7" format="2">
  <unicode hex="2DF7"/>
  <anchor x="-444" y="1170" name="_top"/>
  <outline>
    <contour>
      <point x="-440" y="1194" type="curve" smooth="yes"/>
      <point x="-366" y="1194"/>
      <point x="-317" y="1230"/>
      <point x="-285" y="1282" type="curve"/>
      <point x="-309" y="1302" type="line"/>
      <point x="-350" y="1246"/>
      <point x="-387" y="1230"/>
      <point x="-442" y="1230" type="curve" smooth="yes"/>
      <point x="-531" y="1230"/>
      <point x="-611" y="1322"/>
      <point x="-611" y="1461" type="curve" smooth="yes"/>
      <point x="-611" y="1483" type="line" smooth="yes"/>
      <point x="-611" y="1621"/>
      <point x="-551" y="1722"/>
      <point x="-450" y="1722" type="curve" smooth="yes"/>
      <point x="-357" y="1722"/>
      <point x="-308" y="1638"/>
      <point x="-308" y="1524" type="curve" smooth="yes"/>
      <point x="-308" y="1517" type="line"/>
      <point x="-629" y="1517" type="line"/>
      <point x="-629" y="1480" type="line"/>
      <point x="-272" y="1480" type="line"/>
      <point x="-272" y="1525" type="line" smooth="yes"/>
      <point x="-272" y="1669"/>
      <point x="-344" y="1759"/>
      <point x="-450" y="1759" type="curve" smooth="yes"/>
      <point x="-559" y="1759"/>
      <point x="-648" y="1656"/>
      <point x="-648" y="1483" type="curve" smooth="yes"/>
      <point x="-648" y="1461" type="line" smooth="yes"/>
      <point x="-648" y="1303"/>
      <point x="-555" y="1194"/>
    </contour>
  </outline>
</glyph>
<glyph name="uni2E26" format="2">
  <advance width="1012"/>
  <unicode hex="2E26"/>
  <outline>
    <contour>
      <point x="923" y="264" type="line"/>
      <point x="437" y="262" type="line" smooth="yes"/>
      <point x="252" y="263"/>
      <point x="140" y="401"/>
      <point x="140" y="632" type="curve" smooth="yes"/>
      <point x="140" y="866"/>
      <point x="251" y="1006"/>
      <point x="437" y="1006" type="curve" smooth="yes"/>
      <point x="923" y="1007" type="line"/>
      <point x="923" y="1057" type="line"/>
      <point x="435" y="1057" type="line" smooth="yes"/>
      <point x="214" y="1055"/>
      <point x="87" y="898"/>
      <point x="87" y="632" type="curve" smooth="yes"/>
      <point x="87" y="368"/>
      <point x="214" y="211"/>
      <point x="437" y="211" type="curve" smooth="yes"/>
      <point x="923" y="213" type="line"/>
    </contour>
  </outline>
</glyph>
<glyph name="uniA648" format="2">
  <advance width="1075"/>
  <unicode hex="A648"/>
  <outline>
    <contour>
      <point x="784" y="902" type="line"/>
      <point x="784" y="951" type="line"/>
      <point x="283" y="951" type="line"/>
      <point x="283" y="902" type="line"/>
    </contour>
    <contour>
      <point x="113" y="0" type="line"/>
      <point x="536" y="858" type="line"/>
      <point x="962" y="0" type="line"/>
      <point x="1026" y="0" type="line"/>
      <point x="562" y="903" type="line"/>
      <point x="562" y="1456" type="line"/>
      <point x="509" y="1456" type="line"/>
      <point x="509" y="903" type="line"/>
      <point x="46" y="0" type="line"/>
    </contour>
  </outline>
</glyph>
<glyph name="uniA64A" format="2">
  <advance width="1017"/>
  <unicode hex="A64A"/>
  <outline>
    <contour>
      <point x="508" y="30" type="curve"/>
      <point x="508" y="-20" type="line"/>
      <point x="676" y="-20"/>
      <point x="847" y="89"/>
      <point x="844" y="301" type="curve" smooth="yes"/>
      <point x="842" y="446"/>
      <point x="759" y="547"/>
      <point x="658" y="630" type="curve" smooth="yes"/>
      <point x="527" y="737" type="line" smooth="yes"/>
      <point x="416" y="829"/>
      <point x="311" y="959"/>
      <point x="245" y="1176" type="curve" smooth="yes"/>
      <point x="162" y="1456" type="line"/>
      <point x="162" y="1456"/>
      <point x="103" y="1456"/>
      <point x="103" y="1456" type="curve"/>
      <point x="193" y="1174" type="line" smooth="yes"/>
      <point x="264" y="937"/>
      <point x="378" y="801"/>
      <point x="491" y="708" type="curve" smooth="yes"/>
      <point x="629" y="595" type="line" smooth="yes"/>
      <point x="711" y="526"/>
      <point x="792" y="437"/>
      <point x="792" y="299" type="curve" smooth="yes"/>
      <point x="792" y="164"/>
      <point x="694" y="30"/>
    </contour>
    <contour>
      <point x="508" y="-20" type="curve"/>
      <point x="508" y="30" type="line"/>
      <point x="320" y="30"/>
      <point x="224" y="164"/>
      <point x="224" y="299" type="curve" smooth="yes"/>
      <point x="224" y="431"/>
      <point x="297" y="523"/>
      <point x="385" y="596" type="curve" smooth="yes"/>
      <point x="525" y="711" type="line" smooth="yes"/>
      <point x="638" y="801"/>
      <point x="749" y="938"/>
      <point x="822" y="1175" type="curve" smooth="yes"/>
      <point x="912" y="1456" type="line"/>
      <point x="912" y="1456"/>
      <point x="854" y="1456"/>
      <point x="854" y="1456" type="curve"/>
      <point x="768" y="1178" type="line" smooth="yes"/>
      <point x="704" y="958"/>
      <point x="598" y="830"/>
      <point x="487" y="736" type="curve" smooth="yes"/>
      <point x="353" y="626" type="line" smooth="yes"/>
      <point x="261" y="551"/>
      <point x="174" y="449"/>
      <point x="172" y="301" type="curve" smooth="yes"/>
      <point x="168" y="89"/>
      <point x="339" y="-20"/>
    </contour>
  </outline>
</glyph>
<glyph name="uniA64F" format="2">
  <advance width="1063"/>
  <unicode hex="A64F"/>
  <outline>
    <contour>
      <point x="353" y="667" type="line"/>
      <point x="353" y="618" type="line"/>
      <point x="673" y="618" type="line" smooth="yes"/>
      <point x="869" y="618"/>
      <point x="949" y="478"/>
      <point x="949" y="337" type="curve" smooth="yes"/>
      <point x="949" y="186"/>
      <point x="869" y="51"/>
      <point x="673" y="51" type="curve" smooth="yes"/>
      <point x="383" y="51" type="line"/>
      <point x="383" y="1082" type="line"/>
      <point x="21" y="1082" type="line"/>
      <point x="21" y="1031" type="line"/>
      <point x="331" y="1031" type="line"/>
      <point x="331" y="0" type="line"/>
      <point x="673" y="0" type="line" smooth="yes"/>
      <point x="886" y="0"/>
      <point x="1003" y="141"/>
      <point x="1003" y="333" type="curve" smooth="yes"/>
      <point x="1003" y="525"/>
      <point x="886" y="667"/>
      <point x="673" y="667" type="curve" smooth="yes"/>
    </contour>
  </outline>
</glyph>
<glyph name="uniA65D" format="2">
  <advance width="1261"/>
  <unicode hex="A65D"/>
  <outline>
    <contour>
      <point x="331" y="0" type="line"/>
      <point x="388" y="0" type="line"/>
      <point x="748" y="964" type="line"/>
      <point x="779" y="1082" type="line"/>
      <point x="736" y="1082" type="line"/>
    </contour>
    <contour>
      <point x="1138" y="0" type="line"/>
      <point x="1193" y="0" type="line"/>
      <point x="792" y="1082" type="line"/>
      <point x="749" y="1082" type="line"/>
      <point x="779" y="968" type="line"/>
    </contour>
    <contour>
      <point x="1036" y="380" type="line"/>
      <point x="481" y="380" type="line"/>
      <point x="481" y="327" type="line"/>
      <point x="1036" y="327" type="line"/>
    </contour>
    <contour>
      <point x="377" y="0" type="line"/>
      <point x="1152" y="0" type="line"/>
      <point x="1152" y="50" type="line"/>
      <point x="377" y="50" type="line"/>
    </contour>
    <contour>
      <point x="186" y="380" type="line"/>
      <point x="186" y="327" type="line"/>
      <point x="493" y="327" type="line"/>
      <point x="493" y="380" type="line"/>
    </contour>
    <contour>
      <point x="214" y="1082" type="line"/>
      <point x="162" y="1082" type="line"/>
      <point x="162" y="0" type="line"/>
      <point x="214" y="0" type="line"/>
    </contour>
  </outline>
</glyph>
<glyph name="uniA717" format="2">
  <advance width="446"/>
  <unicode hex="A717"/>
  <outline>
    <contour>
      <point x="310" y="1465" type="line"/>
      <point x="310" y="651" type="line"/>
      <point x="361" y="651" type="line"/>
      <point x="361" y="1465" type="line"/>
    </contour>
    <contour>
      <point x="87" y="1059" type="curve" smooth="yes"/>
      <point x="87" y="1028"/>
      <point x="107" y="1009"/>
      <point x="132" y="1009" type="curve" smooth="yes"/>
      <point x="159" y="1009"/>
      <point x="180" y="1028"/>
      <point x="180" y="1059" type="curve" smooth="yes"/>
      <point x="180" y="1086"/>
      <point x="159" y="1110"/>
      <point x="132" y="1110" type="curve" smooth="yes"/>
      <point x="107" y="1110"/>
      <point x="87" y="1086"/>
    </contour>
  </outline>
</glyph>
<glyph name="uniA72F" format="2">
  <advance width="1007"/>
  <unicode hex="A72F"/>
  <outline>
    <contour>
      <point x="948" y="51" type="line"/>
      <point x="165" y="51" type="line"/>
      <point x="616" y="882" type="line"/>
      <point x="721" y="1081" type="line"/>
      <point x="675" y="1081" type="line"/>
      <point x="86" y="27" type="line"/>
      <point x="86" y="0" type="line"/>
      <point x="948" y="0" type="line"/>
    </contour>
    <contour>
      <point x="735" y="1081" type="line"/>
      <point x="683" y="1081" type="line"/>
      <point x="683" y="-20" type="line"/>
      <point x="735" y="-20" type="line"/>
    </contour>
    <contour>
      <point x="683" y="0" type="line"/>
      <point x="683" y="-89" type="line" smooth="yes"/>
      <point x="683" y="-277"/>
      <point x="613" y="-386"/>
      <point x="491" y="-386" type="curve" smooth="yes"/>
      <point x="461" y="-386"/>
      <point x="425" y="-376"/>
      <point x="407" y="-367" type="curve"/>
      <point x="397" y="-415" type="line"/>
      <point x="430" y="-430"/>
      <point x="459" y="-437"/>
      <point x="493" y="-437" type="curve" smooth="yes"/>
      <point x="646" y="-437"/>
      <point x="735" y="-314"/>
      <point x="735" y="-89" type="curve" smooth="yes"/>
      <point x="735" y="0" type="line"/>
    </contour>
    <contour>
      <point x="911" y="-133" type="line"/>
      <point x="859" y="-133" type="line"/>
      <point x="859" y="-213" type="line" smooth="yes"/>
      <point x="859" y="-302"/>
      <point x="839" y="-354"/>
      <point x="801" y="-421" type="curve"/>
      <point x="835" y="-450" type="line"/>
      <point x="880" y="-395"/>
      <point x="911" y="-316"/>
      <point x="911" y="-210" type="curve" smooth="yes"/>
    </contour>
  </outline>
</glyph>
<glyph name="uniA753" format="2">
  <advance width="1146"/>
  <unicode hex="A753"/>
  <outline>
    <contour>
      <point x="74" y="-340" type="curve"/>
      <point x="122" y="-340" type="line"/>
      <point x="110" y="-297"/>
      <point x="103" y="-253"/>
      <point x="103" y="-196" type="curve" smooth="yes"/>
      <point x="103" y="-55"/>
      <point x="149" y="49"/>
      <point x="265" y="49" type="curve" smooth="yes"/>
      <point x="290" y="49"/>
      <point x="317" y="47"/>
      <point x="349" y="38" type="curve"/>
      <point x="361" y="88" type="line"/>
      <point x="326" y="99"/>
      <point x="293" y="101"/>
      <point x="264" y="101" type="curve" smooth="yes"/>
      <point x="119" y="101"/>
      <point x="52" y="-31"/>
      <point x="52" y="-198" type="curve" smooth="yes"/>
      <point x="52" y="-258"/>
      <point x="59" y="-306"/>
    </contour>
    <contour>
      <point x="370" y="874" type="line"/>
      <point x="369" y="1082" type="line"/>
      <point x="317" y="1082" type="line"/>
      <point x="317" y="-416" type="line"/>
      <point x="370" y="-416" type="line"/>
    </contour>
    <contour>
      <point x="322" y="44" type="line"/>
      <point x="437" y="11"/>
      <point x="538" y="-20"/>
      <point x="678" y="-20" type="curve" smooth="yes"/>
      <point x="897" y="-20"/>
      <point x="1026" y="201"/>
      <point x="1026" y="531" type="curve" smooth="yes"/>
      <point x="1026" y="552" type="line" smooth="yes"/>
      <point x="1026" y="892"/>
      <point x="897" y="1102"/>
      <point x="679" y="1102" type="curve" smooth="yes"/>
      <point x="477" y="1102"/>
      <point x="360" y="949"/>
      <point x="322" y="750" type="curve"/>
    </contour>
    <contour>
      <point x="353" y="88" type="curve"/>
      <point x="353" y="712" type="line"/>
      <point x="379" y="844"/>
      <point x="450" y="1052"/>
      <point x="676" y="1052" type="curve" smooth="yes"/>
      <point x="877" y="1052"/>
      <point x="972" y="841"/>
      <point x="972" y="552" type="curve" smooth="yes"/>
      <point x="972" y="531" type="line" smooth="yes"/>
      <point x="972" y="240"/>
      <point x="877" y="30"/>
      <point x="678" y="30" type="curve" smooth="yes"/>
      <point x="540" y="30"/>
      <point x="461" y="63"/>
    </contour>
  </outline>
</glyph>
<glyph name="uniA758" format="2">
  <advance width="1404"/>
  <unicode hex="A758"/>
  <outline>
    <contour>
      <point x="1006" y="541" type="line"/>
      <point x="1006" y="221"/>
      <point x="863" y="30"/>
      <point x="598" y="30" type="curve" smooth="yes"/>
      <point x="337" y="30"/>
      <point x="193" y="221"/>
      <point x="193" y="541" type="curve" smooth="yes"/>
      <point x="193" y="916" type="line" smooth="yes"/>
      <point x="193" y="1234"/>
      <point x="337" y="1425"/>
      <point x="597" y="1425" type="curve" smooth="yes"/>
      <point x="860" y="1425"/>
      <point x="1006" y="1234"/>
      <point x="1006" y="916" type="curve" smooth="yes"/>
    </contour>
    <contour>
      <point x="1058" y="914" type="line"/>
      <point x="1058" y="1270"/>
      <point x="882" y="1476"/>
      <point x="597" y="1476" type="curve" smooth="yes"/>
      <point x="314" y="1476"/>
      <point x="137" y="1270"/>
      <point x="137" y="914" type="curve" smooth="yes"/>
      <point x="137" y="541" type="line" smooth="yes"/>
      <point x="137" y="186"/>
      <point x="316" y="-22"/>
      <point x="598" y="-22" type="curve" smooth="yes"/>
      <point x="885" y="-22"/>
      <point x="1058" y="186"/>
      <point x="1058" y="541" type="curve" smooth="yes"/>
    </contour>
    <contour>
      <point x="779" y="60" type="line"/>
      <point x="739" y="24" type="line"/>
      <point x="1003" y="-261" type="line"/>
      <point x="1040" y="-228" type="line"/>
    </contour>
    <contour>
      <point x="1191" y="818" type="line"/>
      <point x="1294" y="650"/>
      <point x="1370" y="509"/>
      <point x="1184" y="288" type="curve" smooth="yes"/>
      <point x="718" y="-267" type="line"/>
      <point x="756" y="-304" type="line"/>
      <point x="1209" y="236" type="line" smooth="yes"/>
      <point x="1382" y="437"/>
      <point x="1404" y="586"/>
      <point x="1235" y="852" type="curve"/>
    </contour>
  </outline>
</glyph>
<glyph name="uniA766" format="2">
  <advance width="1162"/>
  <unicode hex="A766"/>
  <outline>
    <contour>
      <point x="277" y="1456" type="line"/>
      <point x="277" y="-421" type="line"/>
      <point x="328" y="-421" type="line"/>
      <point x="328" y="1456" type="line"/>
    </contour>
    <contour>
      <point x="298" y="1142" type="line"/>
      <point x="298" y="1092" type="line"/>
      <point x="637" y="1092" type="line" smooth="yes"/>
      <point x="874" y="1092"/>
      <point x="969" y="910"/>
      <point x="969" y="736" type="curve" smooth="yes"/>
      <point x="969" y="571"/>
      <point x="874" y="385"/>
      <point x="637" y="385" type="curve" smooth="yes"/>
      <point x="298" y="385" type="line"/>
      <point x="298" y="335" type="line"/>
      <point x="637" y="335" type="line" smooth="yes"/>
      <point x="885" y="335"/>
      <point x="1021" y="504"/>
      <point x="1021" y="738" type="curve" smooth="yes"/>
      <point x="1021" y="971"/>
      <point x="885" y="1142"/>
      <point x="637" y="1142" type="curve" smooth="yes"/>
    </contour>
    <contour>
      <point x="552" y="51" type="line"/>
      <point x="52" y="51" type="line"/>
      <point x="52" y="0" type="line"/>
      <point x="552" y="0" type="line"/>
    </contour>
  </outline>
</glyph>
<glyph name="uniA775" format="2">
  <advance width="744"/>
  <unicode hex="A775"/>
  <outline>
    <contour>
      <point x="641" y="1289" type="line"/>
      <point x="586" y="1289" type="line"/>
      <point x="361" y="591" type="line"/>
      <point x="414" y="591" type="line"/>
    </contour>
    <contour>
      <point x="216" y="893" type="line"/>
      <point x="216" y="1082" type="line"/>
      <point x="163" y="1082" type="line"/>
      <point x="163" y="0" type="line"/>
      <point x="216" y="0" type="line"/>
    </contour>
    <contour>
      <point x="511" y="1053" type="curve" smooth="yes"/>
      <point x="581" y="1053"/>
      <point x="639" y="1039"/>
      <point x="696" y="1007" type="curve"/>
      <point x="700" y="1059" type="line"/>
      <point x="651" y="1084"/>
      <point x="589" y="1102"/>
      <point x="514" y="1102" type="curve" smooth="yes"/>
      <point x="284" y="1102"/>
      <point x="175" y="879"/>
      <point x="175" y="576" type="curve"/>
      <point x="206" y="578" type="line"/>
      <point x="206" y="837"/>
      <point x="308" y="1053"/>
    </contour>
  </outline>
</glyph>
<glyph name="uniA785" format="2">
  <advance width="614"/>
  <unicode hex="A785"/>
  <outline>
    <contour>
      <point x="214" y="893" type="line"/>
      <point x="214" y="1082" type="line"/>
      <point x="162" y="1082" type="line"/>
      <point x="162" y="-416" type="line"/>
      <point x="214" y="-416" type="line"/>
    </contour>
    <contour>
      <point x="574" y="1093" type="line"/>
      <point x="558" y="1099"/>
      <point x="536" y="1102"/>
      <point x="509" y="1102" type="curve" smooth="yes"/>
      <point x="282" y="1102"/>
      <point x="173" y="879"/>
      <point x="173" y="576" type="curve"/>
      <point x="203" y="578" type="line"/>
      <point x="204" y="837"/>
      <point x="306" y="1053"/>
      <point x="508" y="1053" type="curve" smooth="yes"/>
      <point x="529" y="1053"/>
      <point x="551" y="1051"/>
      <point x="569" y="1046" type="curve"/>
    </contour>
  </outline>
</glyph>
<glyph name="uniA7A6" format="2">
  <advance width="1259"/>
  <unicode hex="A7A6"/>
  <outline>
    <contour>
      <point x="1196" y="1254" type="line"/>
      <point x="52" y="901" type="line"/>
      <point x="63" y="851" type="line"/>
      <point x="1207" y="1204" type="line"/>
    </contour>
    <contour>
      <point x="237" y="1456" type="line"/>
      <point x="237" y="0" type="line"/>
      <point x="290" y="0" type="line"/>
      <point x="290" y="1406" type="line"/>
      <point x="632" y="1406" type="line" smooth="yes"/>
      <point x="849" y="1406"/>
      <point x="986" y="1267"/>
      <point x="986" y="1036" type="curve" smooth="yes"/>
      <point x="986" y="856"/>
      <point x="880" y="675"/>
      <point x="672" y="675" type="curve" smooth="yes"/>
      <point x="253" y="675" type="line"/>
      <point x="255" y="624" type="line"/>
      <point x="721" y="624" type="line"/>
      <point x="749" y="637" type="line"/>
      <point x="910" y="661"/>
      <point x="1039" y="825"/>
      <point x="1039" y="1036" type="curve" smooth="yes"/>
      <point x="1039" y="1308"/>
      <point x="869" y="1456"/>
      <point x="632" y="1456" type="curve" smooth="yes"/>
    </contour>
    <contour>
      <point x="1035" y="0" type="line"/>
      <point x="1090" y="0" type="line"/>
      <point x="1090" y="14" type="line"/>
      <point x="759" y="642" type="line"/>
      <point x="699" y="641" type="line"/>
    </contour>
  </outline>
</glyph>
<glyph name="uniAB4B" format="2">
  <advance width="875"/>
  <unicode hex="AB4B"/>
  <outline>
    <contour>
      <point x="586" y="1082" type="line"/>
      <point x="586" y="255" type="line" smooth="yes"/>
      <point x="586" y="57"/>
      <point x="636" y="-21"/>
      <point x="739" y="-21" type="curve" smooth="yes"/>
      <point x="759" y="-21"/>
      <point x="781" y="-21"/>
      <point x="803" y="-8" type="curve"/>
      <point x="793" y="38" type="line"/>
      <point x="775" y="35"/>
      <point x="760" y="29"/>
      <point x="740" y="29" type="curve" smooth="yes"/>
      <point x="680" y="29"/>
      <point x="637" y="80"/>
      <point x="637" y="255" type="curve" smooth="yes"/>
      <point x="637" y="1082" type="line"/>
    </contour>
    <contour>
      <point x="586" y="1082" type="line"/>
      <point x="538" y="986"/>
      <point x="437" y="897"/>
      <point x="294" y="897" type="curve" smooth="yes"/>
      <point x="180" y="897"/>
      <point x="107" y="952"/>
      <point x="107" y="1082" type="curve"/>
      <point x="53" y="1082" type="line"/>
      <point x="53" y="910"/>
      <point x="156" y="845"/>
      <point x="294" y="845" type="curve" smooth="yes"/>
      <point x="463" y="845"/>
      <point x="579" y="949"/>
      <point x="630" y="1082" type="curve"/>
    </contour>
  </outline>
</glyph>
<glyph name="uniAB4D" format="2">
  <advance width="535"/>
  <unicode hex="AB4D"/>
  <outline>
    <contour>
      <point x="353" y="600" type="line"/>
      <point x="353" y="1239" type="line" smooth="yes"/>
      <point x="353" y="1407"/>
      <point x="426" y="1506"/>
      <point x="545" y="1506" type="curve" smooth="yes"/>
      <point x="589" y="1506"/>
      <point x="612" y="1501"/>
      <point x="645" y="1490" type="curve"/>
      <point x="652" y="1541" type="line"/>
      <point x="617" y="1555"/>
      <point x="578" y="1557"/>
      <point x="543" y="1557" type="curve" smooth="yes"/>
      <point x="392" y="1557"/>
      <point x="299" y="1444"/>
      <point x="299" y="1239" type="curve" smooth="yes"/>
      <point x="299" y="600" type="line"/>
    </contour>
    <contour>
      <point x="299" y="1144" type="line"/>
      <point x="299" y="298" type="line" smooth="yes"/>
      <point x="299" y="130"/>
      <point x="226" y="30"/>
      <point x="107" y="30" type="curve" smooth="yes"/>
      <point x="62" y="30"/>
      <point x="39" y="35"/>
      <point x="7" y="46" type="curve"/>
      <point x="-1" y="-2" type="line"/>
      <point x="35" y="-16"/>
      <point x="72" y="-20"/>
      <point x="108" y="-20" type="curve" smooth="yes"/>
      <point x="261" y="-20"/>
      <point x="353" y="93"/>
      <point x="353" y="298" type="curve" smooth="yes"/>
      <point x="353" y="1144" type="line"/>
    </contour>
  </outline>
</glyph>
<glyph name="uniAB57" format="2">
  <advance width="958"/>
  <unicode hex="AB57"/>
  <outline>
    <contour>
      <point x="236" y="1082" type="line"/>
      <point x="172" y="1082" type="line"/>
      <point x="492" y="555" type="line"/>
      <point x="-94" y="-416" type="line"/>
      <point x="-29" y="-416" type="line"/>
      <point x="525" y="512" type="line"/>
      <point x="831" y="0" type="line"/>
      <point x="894" y="0" type="line"/>
      <point x="557" y="555" type="line"/>
      <point x="877" y="1082" type="line"/>
      <point x="813" y="1082" type="line"/>
      <point x="527" y="599" type="line"/>
    </contour>
  </outline>
</glyph>
<glyph name="OE.smcp" format="2">
  <advance width="1499"/>
  <outline>
    <contour>
      <point x="835" y="1165" type="line"/>
      <point x="743" y="1165"/>
      <point x="601" y="1181"/>
      <point x="518" y="1181" type="curve" smooth="yes"/>
      <point x="271" y="1181"/>
      <point x="115" y="974"/>
      <point x="115" y="663" type="curve"/>
      <point x="115" y="501" type="line"/>
      <point x="115" y="190"/>
      <point x="274" y="-16"/>
      <point x="518" y="-16" type="curve" smooth="yes"/>
      <point x="600" y="-16"/>
      <point x="723" y="0"/>
      <point x="838" y="0" type="curve"/>
      <point x="813" y="51" type="line"/>
      <point x="722" y="50"/>
      <point x="593" y="35"/>
      <point x="518" y="35" type="curve" smooth="yes"/>
      <point x="297" y="35"/>
      <point x="167" y="224"/>
      <point x="167" y="501" type="curve" smooth="yes"/>
      <point x="167" y="665" type="line" smooth="yes"/>
      <point x="167" y="940"/>
      <point x="297" y="1129"/>
      <point x="518" y="1129" type="curve" smooth="yes"/>
      <point x="592" y="1129"/>
      <point x="735" y="1113"/>
      <point x="817" y="1113" type="curve"/>
    </contour>
    <contour>
      <point x="1422" y="51" type="line"/>
      <point x="798" y="51" type="line"/>
      <point x="798" y="0" type="line"/>
      <point x="1422" y="0" type="line"/>
    </contour>
    <contour>
      <point x="824" y="1165" type="line"/>
      <point x="772" y="1165" type="line"/>
      <point x="772" y="0" type="line"/>
      <point x="824" y="0" type="line"/>
    </contour>
    <contour>
      <point x="1346" y="632" type="line"/>
      <point x="798" y="632" type="line"/>
      <point x="798" y="580" type="line"/>
      <point x="1346" y="580" type="line"/>
    </contour>
    <contour>
      <point x="1421" y="1165" type="line"/>
      <point x="798" y="1165" type="line"/>
      <point x="798" y="1113" type="line"/>
      <point x="1421" y="1113" type="line"/>
    </contour>
  </outline>
</glyph>
<glyph name="T.smcp" format="2">
  <advance width="931"/>
  <anchor x="464" y="1320" name="top"/>
  <anchor x="467" y="-2" name="bottom"/>
  <anchor x="912" y="1600" name="top_dd"/>
  <anchor x="912" y="-407" name="bottom_dd"/>
  <anchor x="912" y="1320" name="top0315"/>
  <anchor x="464" y="1320" name="parent_top"/>
  <outline>
    <contour>
      <point x="491" y="1165" type="line"/>
      <point x="440" y="1165" type="line"/>
      <point x="440" y="0" type="line"/>
      <point x="491" y="0" type="line"/>
    </contour>
    <contour>
      <point x="872" y="1165" type="line"/>
      <point x="58" y="1165" type="line"/>
      <point x="58" y="1113" type="line"/>
      <point x="872" y="1113" type="line"/>
    </contour>
  </outline>
</glyph>
<glyph name="ampersand.smcp" format="2">
  <advance width="1096"/>
  <outline>
    <contour>
      <point x="449" y="-21" type="curve" smooth="yes"/>
      <point x="597" y="-21"/>
      <point x="723" y="47"/>
      <point x="808" y="156" type="curve" smooth="yes"/>
      <point x="815" y="162"/>
      <point x="820" y="164"/>
      <point x="827" y="174" type="curve" smooth="yes"/>
      <point x="899" y="271"/>
      <point x="943" y="397"/>
      <point x="943" y="530" type="curve"/>
      <point x="891" y="530" type="line"/>
      <point x="891" y="230"/>
      <point x="689" y="30"/>
      <point x="451" y="30" type="curve" smooth="yes"/>
      <point x="271" y="30"/>
      <point x="186" y="147"/>
      <point x="186" y="272" type="curve" smooth="yes"/>
      <point x="186" y="345"/>
      <point x="201" y="419"/>
      <point x="333" y="538" type="curve" smooth="yes"/>
      <point x="543" y="718" type="line" smooth="yes"/>
      <point x="598" y="766"/>
      <point x="672" y="858"/>
      <point x="672" y="957" type="curve" smooth="yes"/>
      <point x="672" y="1080"/>
      <point x="594" y="1181"/>
      <point x="451" y="1181" type="curve" smooth="yes"/>
      <point x="312" y="1181"/>
      <point x="228" y="1082"/>
      <point x="228" y="938" type="curve" smooth="yes"/>
      <point x="228" y="823"/>
      <point x="305" y="732"/>
      <point x="421" y="591" type="curve" smooth="yes"/>
      <point x="929" y="0" type="line"/>
      <point x="998" y="0" type="line"/>
      <point x="415" y="676" type="line" smooth="yes"/>
      <point x="328" y="780"/>
      <point x="280" y="860"/>
      <point x="280" y="942" type="curve" smooth="yes"/>
      <point x="280" y="1042"/>
      <point x="342" y="1130"/>
      <point x="451" y="1130" type="curve" smooth="yes"/>
      <point x="561" y="1130"/>
      <point x="618" y="1048"/>
      <point x="618" y="958" type="curve" smooth="yes"/>
      <point x="618" y="881"/>
      <point x="576" y="812"/>
      <point x="518" y="758" type="curve" smooth="yes"/>
      <point x="300" y="569" type="line" smooth="yes"/>
      <point x="200" y="483"/>
      <point x="134" y="404"/>
      <point x="134" y="271" type="curve" smooth="yes"/>
      <point x="134" y="93"/>
      <point x="253" y="-21"/>
    </contour>
  </outline>
</glyph>
<glyph name="brevegravecomb" format="2">
  <advance width="821"/>
  <outline>
    <contour>
      <point x="571" y="1456" type="line"/>
      <point x="571" y="1369"/>
      <point x="517" y="1293"/>
      <point x="384" y="1293" type="curve" smooth="yes"/>
      <point x="244" y="1293"/>
      <point x="193" y="1368"/>
      <point x="193" y="1456" type="curve"/>
      <point x="143" y="1456" type="line"/>
      <point x="143" y="1332"/>
      <point x="234" y="1249"/>
      <point x="384" y="1249" type="curve" smooth="yes"/>
      <point x="531" y="1249"/>
      <point x="622" y="1332"/>
      <point x="622" y="1456" type="curve"/>
    </contour>
    <contour>
      <point x="384" y="1423" type="line"/>
      <point x="432" y="1423" type="line"/>
      <point x="293" y="1635" type="line"/>
      <point x="235" y="1635" type="line"/>
    </contour>
  </outline>
</glyph>
<glyph name="dasiaoxia" format="2">
  <advance width="697"/>
  <outline>
    <contour>
      <point x="310" y="1157" type="line"/>
      <point x="356" y="1157" type="line"/>
      <point x="493" y="1456" type="line"/>
      <point x="493" y="1477" type="line"/>
      <point x="435" y="1477" type="line"/>
      <point x="310" y="1164" type="line"/>
    </contour>
    <contour>
      <point x="169" y="1154" type="line"/>
      <point x="223" y="1154" type="line"/>
      <point x="223" y="1253" type="line" smooth="yes"/>
      <point x="223" y="1338"/>
      <point x="250" y="1398"/>
      <point x="312" y="1443" type="curve"/>
      <point x="286" y="1483" type="line"/>
      <point x="215" y="1446"/>
      <point x="169" y="1357"/>
      <point x="169" y="1259" type="curve" smooth="yes"/>
    </contour>
  </outline>
</glyph>
<glyph name="dieresisgravecomb" format="2">
  <outline>
    <contour>
      <point x="-501" y="1535" type="line"/>
      <point x="-562" y="1535" type="line"/>
      <point x="-412" y="1321" type="line"/>
      <point x="-361" y="1321" type="line"/>
    </contour>
    <contour>
      <point x="-681" y="1429" type="curve" smooth="yes"/>
      <point x="-681" y="1401"/>
      <point x="-662" y="1377"/>
      <point x="-633" y="1377" type="curve" smooth="yes"/>
      <point x="-605" y="1377"/>
      <point x="-582" y="1401"/>
      <point x="-582" y="1429" type="curve" smooth="yes"/>
      <point x="-582" y="1462"/>
      <point x="-605" y="1485"/>
      <point x="-633" y="1485" type="curve" smooth="yes"/>
      <point x="-662" y="1485"/>
      <point x="-681" y="1462"/>
    </contour>
    <contour>
      <point x="-335" y="1430" type="curve" smooth="yes"/>
      <point x="-335" y="1401"/>
      <point x="-315" y="1377"/>
      <point x="-286" y="1377" type="curve" smooth="yes"/>
      <point x="-258" y="1377"/>
      <point x="-236" y="1401"/>
      <point x="-236" y="1430" type="curve" smooth="yes"/>
      <point x="-236" y="1462"/>
      <point x="-258" y="1485"/>
      <point x="-286" y="1485" type="curve" smooth="yes"/>
      <point x="-315" y="1485"/>
      <point x="-335" y="1462"/>
    </contour>
  </outline>
</glyph>
<glyph name="dotbelow" format="2">
  <anchor x="-574" y="0" name="_bottom"/>
  <anchor x="-574" y="-278" name="bottom"/>
  <outline>
    <contour>
      <point x="-636" y="-217" type="curve" smooth="yes"/>
      <point x="-636" y="-247"/>
      <point x="-610" y="-270"/>
      <point x="-579" y="-270" type="curve" smooth="yes"/>
      <point x="-545" y="-270"/>
      <point x="-519" y="-247"/>
      <point x="-519" y="-217" type="curve" smooth="yes"/>
      <point x="-519" y="-188"/>
      <point x="-545" y="-163"/>
      <point x="-579" y="-163" type="curve" smooth="yes"/>
      <point x="-610" y="-163"/>
      <point x="-636" y="-188"/>
    </contour>
  </outline>
</glyph>
<glyph name="dotbelow_uni1ABD" format="2">
  <anchor x="-467" y="0" name="_bottom"/>
  <anchor x="-467" y="-278" name="bottom"/>
  <outline>
    <contour>
      <point x="-695" y="-466" type="curve"/>
      <point x="-692" y="-437" type="line"/>
      <point x="-756" y="-408"/>
      <point x="-808" y="-341"/>
      <point x="-808" y="-253" type="curve" smooth="yes"/>
      <point x="-808" y="-168"/>
      <point x="-762" y="-101"/>
      <point x="-692" y="-73" type="curve"/>
      <point x="-695" y="-43" type="line"/>
      <point x="-780" y="-74"/>
      <point x="-845" y="-159"/>
      <point x="-845" y="-253" type="curve" smooth="yes"/>
      <point x="-845" y="-356"/>
      <point x="-780" y="-435"/>
    </contour>
    <contour>
      <point x="-249" y="-466" type="line"/>
      <point x="-165" y="-435"/>
      <point x="-99" y="-356"/>
      <point x="-99" y="-253" type="curve" smooth="yes"/>
      <point x="-99" y="-160"/>
      <point x="-165" y="-74"/>
      <point x="-249" y="-43" type="curve"/>
      <point x="-252" y="-73" type="line"/>
      <point x="-182" y="-101"/>
      <point x="-136" y="-170"/>
      <point x="-136" y="-253" type="curve" smooth="yes"/>
      <point x="-136" y="-340"/>
      <point x="-186" y="-408"/>
      <point x="-252" y="-437" type="curve"/>
    </contour>
    <contour>
      <point x="-521" y="-217" type="curve" smooth="yes"/>
      <point x="-521" y="-247"/>
      <point x="-500" y="-270"/>
      <point x="-472" y="-270" type="curve" smooth="yes"/>
      <point x="-443" y="-270"/>
      <point x="-423" y="-247"/>
      <point x="-423" y="-217" type="curve" smooth="yes"/>
      <point x="-423" y="-188"/>
      <point x="-443" y="-163"/>
      <point x="-472" y="-163" type="curve" smooth="yes"/>
      <point x="-500" y="-163"/>
      <point x="-521" y="-188"/>
    </contour>
  </outline>
</glyph>
<glyph name="esh" format="2">
  <advance width="742"/>
  <anchor x="518" y="1700" name="top"/>
  <anchor x="209" y="-447" name="bottom"/>
  <anchor x="723" y="1700" name="top0315"/>
  <anchor x="518" y="1700" name="parent_top"/>
  <outline>
    <contour>
      <point x="396" y="0" type="line"/>
      <point x="396" y="1239" type="line" smooth="yes"/>
      <point x="396" y="1407"/>
      <point x="471" y="1507"/>
      <point x="589" y="1507" type="curve" smooth="yes"/>
      <point x="634" y="1507"/>
      <point x="658" y="1502"/>
      <point x="690" y="1491" type="curve"/>
      <point x="697" y="1539" type="line"/>
      <point x="661" y="1553"/>
      <point x="622" y="1557"/>
      <point x="589" y="1557" type="curve" smooth="yes"/>
      <point x="436" y="1557"/>
      <point x="344" y="1444"/>
      <point x="344" y="1239" type="curve" smooth="yes"/>
      <point x="344" y="0" type="line"/>
    </contour>
    <contour>
      <point x="344" y="1120" type="line"/>
      <point x="344" y="-119" type="line" smooth="yes"/>
      <point x="344" y="-287"/>
      <point x="271" y="-387"/>
      <point x="150" y="-387" type="curve" smooth="yes"/>
      <point x="106" y="-387"/>
      <point x="83" y="-382"/>
      <point x="51" y="-371" type="curve"/>
      <point x="44" y="-419" type="line"/>
      <point x="80" y="-433"/>
      <point x="118" y="-437"/>
      <point x="152" y="-437" type="curve" smooth="yes"/>
      <point x="304" y="-437"/>
      <point x="396" y="-324"/>
      <point x="396" y="-119" type="curve" smooth="yes"/>
      <point x="396" y="1120" type="line"/>
    </contour>
  </outline>
</glyph>
<glyph name="eshlooprev" format="2">
  <advance width="848"/>
  <outline>
    <contour>
      <point x="562" y="1174" type="line" name="hr00"/>
      <point x="562" y="-90" type="line" smooth="yes"/>
      <point x="562" y="-315"/>
      <point x="651" y="-438"/>
      <point x="803" y="-438" type="curve" smooth="yes"/>
      <point x="838" y="-438"/>
      <point x="866" y="-431"/>
      <point x="899" y="-418" type="curve"/>
      <point x="888" y="-369" type="line"/>
      <point x="871" y="-377"/>
      <point x="837" y="-387"/>
      <point x="806" y="-387" type="curve" smooth="yes"/>
      <point x="683" y="-387"/>
      <point x="614" y="-278"/>
      <point x="614" y="-90" type="curve" smooth="yes"/>
      <point x="614" y="1250" type="line"/>
    </contour>
    <contour>
      <point x="52" y="1250" type="curve" smooth="yes"/>
      <point x="52" y="1039"/>
      <point x="178" y="922"/>
      <point x="332" y="922" type="curve" smooth="yes"/>
      <point x="487" y="922"/>
      <point x="614" y="1070"/>
      <point x="614" y="1250" type="curve" smooth="yes"/>
      <point x="614" y="1448"/>
      <point x="487" y="1581"/>
      <point x="332" y="1581" type="curve" smooth="yes"/>
      <point x="186" y="1581"/>
      <point x="52" y="1454"/>
    </contour>
    <contour>
      <point x="331" y="971" type="curve" smooth="yes"/>
      <point x="209" y="971"/>
      <point x="104" y="1072"/>
      <point x="104" y="1249" type="curve" smooth="yes"/>
      <point x="104" y="1427"/>
      <point x="209" y="1531"/>
      <point x="331" y="1531" type="curve" smooth="yes"/>
      <point x="450" y="1531"/>
      <point x="562" y="1427"/>
      <point x="562" y="1252" type="curve" smooth="yes"/>
      <point x="562" y="1072"/>
      <point x="450" y="971"/>
    </contour>
  </outline>
</glyph>
<glyph name="linevert" format="2">
  <advance width="222"/>
  <outline>
    <contour>
      <point x="135" y="1559" type="line"/>
      <point x="86" y="1559" type="line"/>
      <point x="86" y="1151" type="line"/>
      <point x="135" y="1151" type="line"/>
    </contour>
  </outline>
</glyph>
<glyph name="mturndescend" format="2">
  <advance width="1594"/>
  <anchor x="799" y="1290" name="top"/>
  <anchor x="799" y="-447" name="bottom"/>
  <anchor x="1575" y="1290" name="top0315"/>
  <anchor x="799" y="1290" name="parent_top"/>
  <outline>
    <contour>
      <point x="1386" y="232" type="line"/>
      <point x="1386" y="-416" type="line"/>
      <point x="1440" y="-416" type="line"/>
      <point x="1440" y="1082" type="line"/>
      <point x="1386" y="1082" type="line"/>
    </contour>
    <contour>
      <point x="1393" y="445" type="line"/>
      <point x="1387" y="320"/>
      <point x="1299" y="30"/>
      <point x="1070" y="30" type="curve" smooth="yes"/>
      <point x="926" y="30"/>
      <point x="822" y="100"/>
      <point x="822" y="361" type="curve"/>
      <point x="822" y="1082" type="line"/>
      <point x="769" y="1082" type="line"/>
      <point x="769" y="363" type="line"/>
      <point x="769" y="88"/>
      <point x="880" y="-20"/>
      <point x="1064" y="-20" type="curve" smooth="yes"/>
      <point x="1267" y="-20"/>
      <point x="1400" y="176"/>
      <point x="1420" y="387" type="curve"/>
    </contour>
    <contour>
      <point x="769" y="360" type="line"/>
      <point x="762" y="247"/>
      <point x="663" y="33"/>
      <point x="450" y="30" type="curve" smooth="yes"/>
      <point x="306" y="28"/>
      <point x="204" y="104"/>
      <point x="204" y="381" type="curve" smooth="yes"/>
      <point x="204" y="1082" type="line"/>
      <point x="149" y="1082" type="line"/>
      <point x="149" y="381" type="line" smooth="yes"/>
      <point x="149" y="93"/>
      <point x="258" y="-20"/>
      <point x="446" y="-20" type="curve" smooth="yes"/>
      <point x="648" y="-20"/>
      <point x="783" y="144"/>
      <point x="806" y="326" type="curve"/>
    </contour>
  </outline>
</glyph>
<glyph name="plussubnosp" format="2">
  <anchor x="-460" y="-490" name="bottom"/>
  <anchor x="-460" y="0" name="_bottom"/>
  <outline>
    <contour>
      <point x="-434" y="-84" type="line"/>
      <point x="-486" y="-84" type="line"/>
      <point x="-486" y="-490" type="line"/>
      <point x="-434" y="-490" type="line"/>
    </contour>
    <contour>
      <point x="-634" y="-259" type="line"/>
      <point x="-634" y="-312" type="line"/>
      <point x="-287" y="-312" type="line"/>
      <point x="-287" y="-259" type="line"/>
    </contour>
  </outline>
</glyph>
<glyph name="slashshortnosp" format="2">
  <outline>
    <contour>
      <point x="-150" y="1219" type="line"/>
      <point x="-206" y="1219" type="line"/>
      <point x="-768" y="-145" type="line"/>
      <point x="-712" y="-145" type="line"/>
    </contour>
  </outline>
</glyph>
<glyph name="stigma" format="2">
  <advance width="921"/>
  <outline>
    <contour>
      <point x="560" y="-302" type="line"/>
      <point x="734" y="-302"/>
      <point x="814" y="-240"/>
      <point x="814" y="-115" type="curve" smooth="yes"/>
      <point x="814" y="-30"/>
      <point x="767" y="26"/>
      <point x="678" y="54" type="curve"/>
      <point x="421" y="136" type="line"/>
      <point x="280" y="190"/>
      <point x="152" y="289"/>
      <point x="152" y="551" type="curve" smooth="yes"/>
      <point x="152" y="593" type="line" smooth="yes"/>
      <point x="152" y="865"/>
      <point x="253" y="1051"/>
      <point x="478" y="1051" type="curve" smooth="yes"/>
      <point x="625" y="1051"/>
      <point x="759" y="944"/>
      <point x="768" y="725" type="curve"/>
      <point x="820" y="725" type="line"/>
      <point x="812" y="973"/>
      <point x="655" y="1102"/>
      <point x="478" y="1102" type="curve" smooth="yes"/>
      <point x="237" y="1102"/>
      <point x="101" y="910"/>
      <point x="101" y="593" type="curve" smooth="yes"/>
      <point x="101" y="551" type="line" smooth="yes"/>
      <point x="101" y="257"/>
      <point x="247" y="142"/>
      <point x="404" y="88" type="curve"/>
      <point x="670" y="1" type="line"/>
      <point x="726" y="-20"/>
      <point x="762" y="-57"/>
      <point x="762" y="-114" type="curve" smooth="yes"/>
      <point x="762" y="-200"/>
      <point x="713" y="-252"/>
      <point x="560" y="-252" type="curve"/>
    </contour>
  </outline>
</glyph>
<glyph name="tildevertsupnosp" format="2">
  <anchor x="-477" y="1096" name="_top"/>
  <anchor x="-477" y="1733" name="top"/>
  <anchor x="-477" y="1733" name="parent_top"/>
  <outline>
    <contour>
      <point x="-517" y="1129" type="line"/>
      <point x="-436" y="1129"/>
      <point x="-375" y="1175"/>
      <point x="-375" y="1253" type="curve" smooth="yes"/>
      <point x="-375" y="1363"/>
      <point x="-483" y="1422"/>
      <point x="-483" y="1519" type="curve" smooth="yes"/>
      <point x="-483" y="1568"/>
      <point x="-454" y="1595"/>
      <point x="-391" y="1595" type="curve"/>
      <point x="-391" y="1645" type="line"/>
      <point x="-475" y="1645"/>
      <point x="-534" y="1599"/>
      <point x="-534" y="1518" type="curve" smooth="yes"/>
      <point x="-534" y="1406"/>
      <point x="-424" y="1341"/>
      <point x="-424" y="1255" type="curve" smooth="yes"/>
      <point x="-424" y="1205"/>
      <point x="-464" y="1181"/>
      <point x="-517" y="1181" type="curve"/>
    </contour>
  </outline>
</glyph>
<glyph name="uni02E8_uni02E6_uni02E6" format="2">
  <advance width="977"/>
  <outline>
    <contour>
      <point x="737" y="1052" type="line"/>
      <point x="737" y="0" type="line"/>
      <point x="789" y="0" type="line"/>
      <point x="789" y="1456" type="line"/>
      <point x="737" y="1456" type="line"/>
      <point x="737" y="1105" type="line"/>
      <point x="394" y="1105" type="line"/>
      <point x="83" y="374" type="line"/>
      <point x="126" y="351" type="line"/>
      <point x="426" y="1052" type="line"/>
    </contour>
  </outline>
</glyph>
<glyph name="uni0411.smcp" format="2">
  <advance width="945"/>
  <outline>
    <contour>
      <point x="520" y="675" type="line"/>
      <point x="733" y="675"/>
      <point x="849" y="544"/>
      <point x="849" y="338" type="curve" smooth="yes"/>
      <point x="849" y="133"/>
      <point x="733" y="0"/>
      <point x="520" y="0" type="curve" smooth="yes"/>
      <point x="161" y="0" type="line"/>
      <point x="161" y="1165" type="line"/>
      <point x="214" y="1165" type="line"/>
      <point x="214" y="51" type="line"/>
      <point x="520" y="51" type="line" smooth="yes"/>
      <point x="716" y="51"/>
      <point x="797" y="179"/>
      <point x="797" y="340" type="curve" smooth="yes"/>
      <point x="797" y="495"/>
      <point x="716" y="626"/>
      <point x="520" y="626" type="curve" smooth="yes"/>
      <point x="184" y="626" type="line"/>
      <point x="184" y="675" type="line"/>
    </contour>
    <contour>
      <point x="756" y="1114" type="line"/>
      <point x="185" y="1114" type="line"/>
      <point x="185" y="1165" type="line"/>
      <point x="756" y="1165" type="line"/>
    </contour>
  </outline>
</glyph>
<glyph name="uni041B.smcp" format="2">
  <advance width="1042"/>
  <anchor x="516" y="10" name="bottom"/>
  <outline>
    <contour>
      <point x="845" y="1165" type="line"/>
      <point x="312" y="1165" type="line"/>
      <point x="312" y="1114" type="line"/>
      <point x="845" y="1114" type="line"/>
    </contour>
    <contour>
      <point x="880" y="1165" type="line"/>
      <point x="828" y="1165" type="line"/>
      <point x="828" y="0" type="line"/>
      <point x="880" y="0" type="line"/>
    </contour>
    <contour>
      <point x="294" y="1165" type="line"/>
      <point x="278" y="684" type="line" smooth="yes"/>
      <point x="263" y="162"/>
      <point x="201" y="49"/>
      <point x="80" y="50" type="curve" smooth="yes"/>
      <point x="48" y="52" type="line"/>
      <point x="50" y="0" type="line"/>
      <point x="78" y="0" type="line" smooth="yes"/>
      <point x="254" y="0"/>
      <point x="315" y="166"/>
      <point x="331" y="682" type="curve" smooth="yes"/>
      <point x="346" y="1165" type="line"/>
    </contour>
  </outline>
</glyph>
<glyph name="vturn" format="2">
  <advance width="868"/>
  <anchor x="435" y="1290" name="top"/>
  <anchor x="435" y="0" name="bottom"/>
  <anchor x="849" y="1290" name="top0315"/>
  <anchor x="435" y="1290" name="parent_top"/>
  <outline>
    <contour>
      <point x="443" y="1021" type="line"/>
      <point x="456" y="1082" type="line"/>
      <point x="411" y="1082" type="line"/>
      <point x="54" y="0" type="line"/>
      <point x="110" y="0" type="line"/>
    </contour>
    <contour>
      <point x="759" y="0" type="line"/>
      <point x="814" y="0" type="line"/>
      <point x="458" y="1082" type="line"/>
      <point x="412" y="1082" type="line"/>
      <point x="426" y="1021" type="line"/>
    </contour>
  </outline>
</glyph>
<glyph name="xsupnosp" format="2">
  <anchor x="-458" y="1180" name="_top"/>
  <anchor x="-458" y="1818" name="top"/>
  <anchor x="-458" y="1818" name="parent_top"/>
  <outline>
    <contour>
      <point x="-610" y="1200" type="line"/>
      <point x="-270" y="1614" type="line"/>
      <point x="-303" y="1652" type="line"/>
      <point x="-645" y="1235" type="line"/>
    </contour>
    <contour>
      <point x="-304" y="1200" type="line"/>
      <point x="-270" y="1239" type="line"/>
      <point x="-610" y="1654" type="line"/>
      <point x="-645" y="1615" type="line"/>
    </contour>
  </outline>
</glyph>
<glyph name="yturn" format="2">
  <advance width="866"/>
  <anchor x="431" y="1600" name="top"/>
  <anchor x="431" y="0" name="bottom"/>
  <anchor x="848" y="1600" name="top0315"/>
  <anchor x="431" y="1600" name="parent_top"/>
  <outline>
    <contour>
      <point x="427" y="979" type="line"/>
      <point x="511" y="1254" type="line" smooth="yes"/>
      <point x="550" y="1379"/>
      <point x="599" y="1470"/>
      <point x="713" y="1470" type="curve" smooth="yes"/>
      <point x="724" y="1470"/>
      <point x="756" y="1465"/>
      <point x="774" y="1461" type="curve"/>
      <point x="772" y="1510" type="line"/>
      <point x="759" y="1516"/>
      <point x="721" y="1519"/>
      <point x="705" y="1519" type="curve" smooth="yes"/>
      <point x="534" y="1519"/>
      <point x="490" y="1351"/>
      <point x="459" y="1261" type="curve" smooth="yes"/>
      <point x="55" y="0" type="line"/>
      <point x="111" y="0" type="line"/>
    </contour>
    <contour>
      <point x="763" y="0" type="line"/>
      <point x="820" y="0" type="line"/>
      <point x="448" y="1103" type="line"/>
      <point x="407" y="1073" type="line"/>
      <point x="423" y="1023" type="line"/>
    </contour>
  </outline>
</glyph>
